<?xml version="1.0" encoding="utf-8"?>
<!-- Generator: Adobe Illustrator 22.0.1, SVG Export Plug-In . SVG Version: 6.00 Build 0)  -->
<svg version="1.2" baseProfile="tiny" id="Calque_1"
	 xmlns="http://www.w3.org/2000/svg" xmlns:xlink="http://www.w3.org/1999/xlink" x="0px" y="0px" width="114.5px" height="28.3px"
	 viewBox="0 0 114.5 28.3" xml:space="preserve">
<g id="copper1">
	<g id="copper0">
		<path id="connector10pin" fill="#FFBF00" d="M6.7,19.2c-1.7,0-3.1,1.4-3.1,3.1s1.4,3.1,3.1,3.1s3.1-1.4,3.1-3.1S8.5,19.2,6.7,19.2
			z M6.7,24.5c-1.2,0-2.2-1-2.2-2.2s1-2.2,2.2-2.2s2.2,1,2.2,2.2S7.9,24.5,6.7,24.5z"/>
		<path id="connector9pin" fill="#FFBF00" d="M18,19.2c-1.7,0-3.1,1.4-3.1,3.1s1.4,3.1,3.1,3.1s3.1-1.4,3.1-3.1S19.7,19.2,18,19.2z
			 M18,24.5c-1.2,0-2.2-1-2.2-2.2s1-2.2,2.2-2.2s2.2,1,2.2,2.2S19.2,24.5,18,24.5z"/>
		<path id="connector8pin" fill="#FFBF00" d="M29.2,19.2c-1.7,0-3.1,1.4-3.1,3.1s1.4,3.1,3.1,3.1s3.1-1.4,3.1-3.1
			S30.9,19.2,29.2,19.2z M29.2,24.5c-1.2,0-2.2-1-2.2-2.2s1-2.2,2.2-2.2s2.2,1,2.2,2.2S30.4,24.5,29.2,24.5z"/>
		<path id="connector7pin" fill="#FFBF00" d="M40.4,19.2c-1.7,0-3.1,1.4-3.1,3.1s1.4,3.1,3.1,3.1c1.7,0,3.1-1.4,3.1-3.1
			S42.2,19.2,40.4,19.2z M40.4,24.5c-1.2,0-2.2-1-2.2-2.2s1-2.2,2.2-2.2s2.2,1,2.2,2.2S41.6,24.5,40.4,24.5z"/>
		<path id="connector6pin" fill="#FFBF00" d="M51.7,19.2c-1.7,0-3.1,1.4-3.1,3.1s1.4,3.1,3.1,3.1c1.7,0,3.1-1.4,3.1-3.1
			S53.4,19.2,51.7,19.2z M51.7,24.5c-1.2,0-2.2-1-2.2-2.2s1-2.2,2.2-2.2s2.2,1,2.2,2.2S52.8,24.5,51.7,24.5z"/>
		<path id="connector5pin" fill="#FFBF00" d="M62.9,19.2c-1.7,0-3.1,1.4-3.1,3.1s1.4,3.1,3.1,3.1S66,24,66,22.3S64.6,19.2,62.9,19.2
			z M62.9,24.5c-1.2,0-2.2-1-2.2-2.2s1-2.2,2.2-2.2c1.2,0,2.2,1,2.2,2.2S64.1,24.5,62.9,24.5z"/>
		<path id="connector4pin" fill="#FFBF00" d="M74.1,19.2c-1.7,0-3.1,1.4-3.1,3.1s1.4,3.1,3.1,3.1s3.1-1.4,3.1-3.1
			S75.8,19.2,74.1,19.2z M74.1,24.5c-1.2,0-2.2-1-2.2-2.2s1-2.2,2.2-2.2s2.2,1,2.2,2.2S75.3,24.5,74.1,24.5z"/>
		<path id="connector3pin" fill="#FFBF00" d="M85.3,19.2c-1.7,0-3.1,1.4-3.1,3.1s1.4,3.1,3.1,3.1s3.1-1.4,3.1-3.1
			S87.1,19.2,85.3,19.2z M85.3,24.5c-1.2,0-2.2-1-2.2-2.2s1-2.2,2.2-2.2s2.2,1,2.2,2.2S86.5,24.5,85.3,24.5z"/>
		<path id="connector2pin" fill="#FFBF00" d="M96.6,19.2c-1.7,0-3.1,1.4-3.1,3.1s1.4,3.1,3.1,3.1s3.1-1.4,3.1-3.1
			S98.3,19.2,96.6,19.2z M96.6,24.5c-1.2,0-2.2-1-2.2-2.2s1-2.2,2.2-2.2s2.2,1,2.2,2.2S97.7,24.5,96.6,24.5z"/>
		<path id="connector1pin" fill="#FFBF00" d="M107.8,19.2c-1.7,0-3.1,1.4-3.1,3.1s1.4,3.1,3.1,3.1s3.1-1.4,3.1-3.1
			S109.5,19.2,107.8,19.2z M107.8,24.5c-1.2,0-2.2-1-2.2-2.2s1-2.2,2.2-2.2s2.2,1,2.2,2.2S109,24.5,107.8,24.5z"/>
	</g>
</g>
<g id="silkscreen">
	<g>
		<path id="_x34_39" fill="none" stroke="#000000" stroke-width="1.875000e-02" stroke-dasharray="0.2,0.1" d="M3.2,14.1V0"/>
		<path id="_x34_37" fill="none" stroke="#000000" stroke-width="1.875000e-02" stroke-dasharray="0.2,0.1" d="M0,14.1V0"/>
		<path id="_x32_7" fill="none" stroke="#000000" stroke-width="1.875000e-02" stroke-dasharray="0.2,0.1" d="M0,14.1h3.2"/>
		<path id="_x32_38" fill="none" stroke="#000000" stroke-width="1.875000e-02" stroke-dasharray="0.2,0.1" d="M0,8.6h3.2"/>
		<path id="_x34_40" fill="none" stroke="#000000" stroke-width="1.875000e-02" stroke-dasharray="0.2,0.1" d="M0,0h3.2"/>
	</g>
	<g>
		<path id="_x34_39_1_" fill="none" stroke="#000000" stroke-width="1.875000e-02" stroke-dasharray="0.2,0.1" d="M114.5,14.1V0"/>
		<path id="_x34_37_1_" fill="none" stroke="#000000" stroke-width="1.875000e-02" stroke-dasharray="0.2,0.1" d="M111.3,14.1V0"/>
		<path id="_x32_7_1_" fill="none" stroke="#000000" stroke-width="1.875000e-02" stroke-dasharray="0.2,0.1" d="M111.3,14.1h3.2"/>
		<path id="_x32_38_1_" fill="none" stroke="#000000" stroke-width="1.875000e-02" stroke-dasharray="0.2,0.1" d="M111.3,8.6h3.2"/>
		<path id="_x34_40_1_" fill="none" stroke="#000000" stroke-width="1.875000e-02" stroke-dasharray="0.2,0.1" d="M111.3,0h3.2"/>
	</g>
	<g>
		<path id="_x34_39_2_" fill="none" stroke="#000000" stroke-width="1.875000e-02" stroke-dasharray="0.2,0.1" d="M58.9,14.2v-14"/>
		<path id="_x34_37_2_" fill="none" stroke="#000000" stroke-width="1.875000e-02" stroke-dasharray="0.2,0.1" d="M55.6,14.2v-14"/>
		<path id="_x32_7_2_" fill="none" stroke="#000000" stroke-width="1.875000e-02" stroke-dasharray="0.2,0.1" d="M55.6,14.2h3.2"/>
		<path id="_x32_38_2_" fill="none" stroke="#000000" stroke-width="1.875000e-02" stroke-dasharray="0.2,0.1" d="M55.6,8.8h3.2"/>
		<path id="_x34_40_2_" fill="none" stroke="#000000" stroke-width="1.875000e-02" stroke-dasharray="0.2,0.1" d="M55.6,0.2h3.2"/>
	</g>
</g>
</svg>
