<?xml version="1.0" encoding="UTF-8" standalone="no"?>
<!-- Generator: Adobe Illustrator 22.0.1, SVG Export Plug-In . SVG Version: 6.00 Build 0)  -->

<svg
   xmlns:dc="http://purl.org/dc/elements/1.1/"
   xmlns:cc="http://creativecommons.org/ns#"
   xmlns:rdf="http://www.w3.org/1999/02/22-rdf-syntax-ns#"
   xmlns:svg="http://www.w3.org/2000/svg"
   xmlns="http://www.w3.org/2000/svg"
   xmlns:sodipodi="http://sodipodi.sourceforge.net/DTD/sodipodi-0.dtd"
   xmlns:inkscape="http://www.inkscape.org/namespaces/inkscape"
   version="1.2"
   id="Calque_1"
   x="0px"
   y="0px"
   width="7.9710007mm"
   height="9.6999998mm"
   viewBox="0 0 30.126617 36.661417"
   xml:space="preserve"
   sodipodi:docname="TC2030_BREADBOARD.svg"
   inkscape:version="0.92.2 (5c3e80d, 2017-08-06)"><metadata
     id="metadata83"><rdf:RDF><cc:Work
         rdf:about=""><dc:format>image/svg+xml</dc:format><dc:type
           rdf:resource="http://purl.org/dc/dcmitype/StillImage" /><dc:title /></cc:Work></rdf:RDF></metadata><defs
     id="defs81"><pattern
       y="0"
       x="0"
       height="6"
       width="6"
       patternUnits="userSpaceOnUse"
       id="EMFhbasepattern" /></defs><sodipodi:namedview
     pagecolor="#ffffff"
     bordercolor="#666666"
     borderopacity="1"
     objecttolerance="10"
     gridtolerance="10"
     guidetolerance="10"
     inkscape:pageopacity="0"
     inkscape:pageshadow="2"
     inkscape:window-width="1920"
     inkscape:window-height="1137"
     id="namedview79"
     showgrid="false"
     fit-margin-top="0"
     fit-margin-left="0"
     fit-margin-right="0"
     fit-margin-bottom="0"
     inkscape:measure-start="6.09067,35.4368"
     inkscape:measure-end="15.6867,35.436"
     inkscape:document-units="mm"
     units="mm"
     inkscape:zoom="16.000001"
     inkscape:cx="6.1872447"
     inkscape:cy="14.725576"
     inkscape:window-x="-8"
     inkscape:window-y="-8"
     inkscape:window-maximized="1"
     inkscape:current-layer="copper1"
     inkscape:snap-path-clip="true"
     inkscape:snap-path-mask="false"
     inkscape:snap-perpendicular="true"
     inkscape:snap-tangential="true"
     showguides="false" /><g
     id="breadboard"
     transform="translate(1.7505871,-11.376121)"><rect
       id="pcb"
       y="11.376121"
       width="30.126616"
       height="36.661415"
       x="-1.7505871"
       style="fill:#1f7a34;stroke-width:0.91015273" /><g
       id="silkscreen"
       style="display:inline"
       transform="translate(0,0.88652248)"><g
         id="g64"
         transform="translate(-0.28125,7.5203179)"><text
           id="text_2_"
           font-size="4px"
           style="font-size:4px;font-family:OCRA;fill:#ffffff"
           x="2.5479703"
           y="12.2046">2</text>
<text
           id="text_4_"
           font-size="4px"
           style="font-size:4px;font-family:OCRA;fill:#ffffff"
           x="12.14797"
           y="12.2046">4</text>
<text
           id="text_6_"
           font-size="4px"
           style="font-size:4px;font-family:OCRA;fill:#ffffff"
           x="21.745972"
           y="12.2046">6</text>
</g><g
         id="g71"
         transform="translate(-0.1875,-2.2882283)"><text
           id="text_1_"
           font-size="4px"
           style="font-size:4px;font-family:OCRA;fill:#ffffff"
           x="2.452219"
           y="43.333">1</text>
<text
           id="text_3_"
           font-size="4px"
           style="font-size:4px;font-family:OCRA;fill:#ffffff"
           x="12.052219"
           y="43.333">3</text>
<text
           id="text_5_"
           font-size="4px"
           style="font-size:4px;font-family:OCRA;fill:#ffffff"
           x="21.650219"
           y="43.333">5</text>
</g><g
         aria-label="TC2030"
         style="font-style:normal;font-variant:normal;font-weight:normal;font-stretch:normal;font-size:1.33333337px;font-family:OCRA;-inkscape-font-specification:'OCRA, Normal';font-variant-ligatures:normal;font-variant-caps:normal;font-variant-numeric:normal;font-feature-settings:normal;text-align:start;writing-mode:lr-tb;text-anchor:start;fill:#ffffff"
         id="TC2030"><path
           d="m 1.1560126,22.699994 v -0.18 h 0.664 v 0.18 q 0,0.028 -0.02,0.048 -0.02,0.02 -0.048,0.02 -0.028,0 -0.048,-0.02 -0.018667,-0.02 -0.018667,-0.048 V 22.65466 H 1.5546793 v 0.837334 q 0,0.028 -0.02,0.048 -0.02,0.02 -0.046667,0.02 -0.028,0 -0.048,-0.02 -0.02,-0.02 -0.02,-0.048 V 22.65466 h -0.129333 v 0.04533 q 0,0.028 -0.02,0.048 -0.02,0.02 -0.048,0.02 -0.028,0 -0.048,-0.02 -0.018667,-0.02 -0.018667,-0.048 z"
           style="font-style:normal;font-variant:normal;font-weight:normal;font-stretch:normal;font-size:1.33333337px;font-family:OCRA;-inkscape-font-specification:'OCRA, Normal';font-variant-ligatures:normal;font-variant-caps:normal;font-variant-numeric:normal;font-feature-settings:normal;text-align:start;writing-mode:lr-tb;text-anchor:start;fill:#ffffff"
           id="path879"
           inkscape:connector-curvature="0" /><path
           d="m 2.1195543,23.039994 q 0,-0.07067 0.032,-0.137334 l 0.1346667,-0.272 q 0.021333,-0.048 0.070667,-0.07867 0.050667,-0.032 0.1106667,-0.032 h 0.248 q 0.028,0 0.048,0.02 0.02,0.02 0.02,0.04667 0,0.028 -0.02,0.048 -0.02,0.02 -0.048,0.02 h -0.248 q -0.041333,0 -0.058667,0.03733 l -0.1373334,0.27067 q -0.017333,0.03733 -0.017333,0.07733 0,0.04 0.017333,0.07733 l 0.1373333,0.270667 q 0.017333,0.03733 0.058667,0.03733 h 0.248 q 0.028,0 0.048,0.02 0.02,0.02 0.02,0.04667 0,0.028 -0.02,0.048 -0.02,0.02 -0.048,0.02 h -0.248 q -0.058667,0 -0.108,-0.032 -0.048,-0.032 -0.072,-0.08 -0.098667,-0.188 -0.136,-0.270667 -0.032,-0.068 -0.032,-0.137333 z"
           style="font-style:normal;font-variant:normal;font-weight:normal;font-stretch:normal;font-size:1.33333337px;font-family:OCRA;-inkscape-font-specification:'OCRA, Normal';font-variant-ligatures:normal;font-variant-caps:normal;font-variant-numeric:normal;font-feature-settings:normal;text-align:start;writing-mode:lr-tb;text-anchor:start;fill:#ffffff"
           id="path881"
           inkscape:connector-curvature="0" /><path
           d="M 3.083096,23.559994 V 23.10666 q 0,-0.05467 0.04,-0.09333 0.04,-0.04 0.094667,-0.04 H 3.6124293 V 22.65466 H 3.1497627 q -0.028,0 -0.048,-0.02 -0.018667,-0.02 -0.018667,-0.048 0,-0.02667 0.018667,-0.04667 0.02,-0.02 0.048,-0.02 h 0.4626666 q 0.053333,0 0.093333,0.04 0.041333,0.04 0.041333,0.09467 v 0.318667 q 0,0.05333 -0.04,0.09333 -0.04,0.04 -0.094667,0.04 H 3.2177627 v 0.318667 H 3.679096 q 0.028,0 0.048,0.02 0.02,0.02 0.02,0.04667 0,0.028 -0.02,0.048 -0.02,0.02 -0.048,0.02 z"
           style="font-style:normal;font-variant:normal;font-weight:normal;font-stretch:normal;font-size:1.33333337px;font-family:OCRA;-inkscape-font-specification:'OCRA, Normal';font-variant-ligatures:normal;font-variant-caps:normal;font-variant-numeric:normal;font-feature-settings:normal;text-align:start;writing-mode:lr-tb;text-anchor:start;fill:#ffffff"
           id="path883"
           inkscape:connector-curvature="0" /><path
           d="M 4.0466376,23.425327 V 22.65466 q 0,-0.05467 0.04,-0.09467 0.04,-0.04 0.094667,-0.04 H 4.575971 q 0.053333,0 0.093333,0.04 0.041333,0.04 0.041333,0.09467 v 0.770667 q 0,0.05467 -0.041333,0.09467 -0.04,0.04 -0.093333,0.04 H 4.1813043 q -0.054667,0 -0.094667,-0.04 -0.04,-0.04 -0.04,-0.09467 z m 0.1346667,0 H 4.575971 V 22.65466 H 4.1813043 Z"
           style="font-style:normal;font-variant:normal;font-weight:normal;font-stretch:normal;font-size:1.33333337px;font-family:OCRA;-inkscape-font-specification:'OCRA, Normal';font-variant-ligatures:normal;font-variant-caps:normal;font-variant-numeric:normal;font-feature-settings:normal;text-align:start;writing-mode:lr-tb;text-anchor:start;fill:#ffffff"
           id="path885"
           inkscape:connector-curvature="0" /><path
           d="m 5.0101794,23.491994 q 0,-0.02667 0.018667,-0.04667 0.02,-0.02 0.048,-0.02 H 5.5395127 V 23.17466 q 0,-0.02667 -0.021333,-0.04667 -0.02,-0.02133 -0.046667,-0.02133 H 5.208846 q -0.028,0 -0.048,-0.01867 -0.018667,-0.02 -0.018667,-0.048 0,-0.028 0.018667,-0.048 0.02,-0.02 0.048,-0.02 h 0.2626667 q 0.028,0 0.048,-0.02 0.02,-0.02 0.02,-0.04667 V 22.65466 H 5.076846 q -0.028,0 -0.048,-0.02 -0.018667,-0.02 -0.018667,-0.048 0,-0.02667 0.018667,-0.04667 0.02,-0.02 0.048,-0.02 h 0.4626667 q 0.053333,0 0.093333,0.04 0.041333,0.04 0.041333,0.09467 v 0.250667 q 0,0.07733 -0.053333,0.134667 0.053333,0.05733 0.053333,0.134666 v 0.250667 q 0,0.05467 -0.041333,0.09467 -0.04,0.04 -0.093333,0.04 H 5.076846 q -0.028,0 -0.048,-0.02 -0.018667,-0.02 -0.018667,-0.048 z"
           style="font-style:normal;font-variant:normal;font-weight:normal;font-stretch:normal;font-size:1.33333337px;font-family:OCRA;-inkscape-font-specification:'OCRA, Normal';font-variant-ligatures:normal;font-variant-caps:normal;font-variant-numeric:normal;font-feature-settings:normal;text-align:start;writing-mode:lr-tb;text-anchor:start;fill:#ffffff"
           id="path887"
           inkscape:connector-curvature="0" /><path
           d="M 5.9737211,23.425327 V 22.65466 q 0,-0.05467 0.04,-0.09467 0.04,-0.04 0.094667,-0.04 h 0.3946667 q 0.053333,0 0.093333,0.04 0.041333,0.04 0.041333,0.09467 v 0.770667 q 0,0.05467 -0.041333,0.09467 -0.04,0.04 -0.093333,0.04 h -0.394667 q -0.054667,0 -0.094667,-0.04 -0.04,-0.04 -0.04,-0.09467 z m 0.1346667,0 H 6.5030545 V 22.65466 H 6.1083878 Z"
           style="font-style:normal;font-variant:normal;font-weight:normal;font-stretch:normal;font-size:1.33333337px;font-family:OCRA;-inkscape-font-specification:'OCRA, Normal';font-variant-ligatures:normal;font-variant-caps:normal;font-variant-numeric:normal;font-feature-settings:normal;text-align:start;writing-mode:lr-tb;text-anchor:start;fill:#ffffff"
           id="path889"
           inkscape:connector-curvature="0" /></g><g
         transform="matrix(1.348245,0,0,1.348245,0.77404241,22.146493)"
         id="g9"
         inkscape:label="g9"><rect
           id="rect31"
           style="fill:none;stroke:#f0f0f0;stroke-width:0.25510001;stroke-linecap:round;stroke-linejoin:round;stroke-miterlimit:10"
           gorn="0.3.0.0.0"
           x="0.1"
           stroke-miterlimit="10"
           width="18.4"
           y="0.1"
           height="9.6999998" /></g></g><g
       id="g135"
       transform="translate(-0.1241928,6.2312989)"
       inkscape:label="g135"><g
         transform="matrix(0.09599999,0,0,0.09599999,2.3042742,7.5438379)"
         id="connector1pin"
         inkscape:label="connector1pin"><rect
           width="31.93"
           x="0"
           y="0"
           height="31.9"
           id="connector31pin"
           style="fill:#8d8c8c" /><rect
           width="16.444201"
           x="7.7915301"
           y="7.7354398"
           height="16.415199"
           id="rect294"
           style="fill:#8c8663" /><polygon
           points="0,31.9 7.79153,24.1368 7.79153,6.97162 0,0 "
           id="polygon296"
           style="fill:#b8af82" /><polygon
           points="24.2079,7.76321 7.90264,7.76321 0,0 31.93,0 "
           id="polygon298"
           style="fill:#80795b" /><polygon
           points="24.2079,24.1368 24.2079,7.76321 31.93,0 31.93,31.9 "
           id="polygon300"
           style="fill:#5e5b43" /><polygon
           points="0,31.9 7.87486,24.1368 24.2079,24.1368 31.93,31.9 "
           id="polygon302"
           style="fill:#9a916c" /></g><g
         transform="matrix(0.09599999,0,0,0.09599999,11.904273,7.5438379)"
         id="connector3pin"
         inkscape:label="connector3pin"><rect
           width="31.93"
           x="0"
           y="0"
           height="31.9"
           id="connector30pin"
           style="fill:#8d8c8c" /><rect
           width="16.444201"
           x="7.7915301"
           y="7.7354398"
           height="16.415199"
           id="rect320"
           style="fill:#8c8663" /><polygon
           points="0,31.9 7.79153,24.1368 7.79153,6.97162 0,0 "
           id="polygon322"
           style="fill:#b8af82" /><polygon
           points="24.2079,7.76321 7.90264,7.76321 0,0 31.93,0 "
           id="polygon324"
           style="fill:#80795b" /><polygon
           points="24.2079,24.1368 24.2079,7.76321 31.93,0 31.93,31.9 "
           id="polygon326"
           style="fill:#5e5b43" /><polygon
           points="0,31.9 7.87486,24.1368 24.2079,24.1368 31.93,31.9 "
           id="polygon328"
           style="fill:#9a916c" /></g><g
         transform="matrix(0.09599999,0,0,0.09599999,21.504273,7.5438379)"
         id="connector5pin"
         inkscape:label="connector5pin"><rect
           width="31.93"
           x="0"
           y="0"
           height="31.9"
           id="connector29pin"
           style="fill:#8d8c8c" /><rect
           width="16.444201"
           x="7.7915301"
           y="7.7354398"
           height="16.415199"
           id="rect346"
           style="fill:#8c8663" /><polygon
           points="7.79153,6.97162 0,0 0,31.9 7.79153,24.1368 "
           id="polygon348"
           style="fill:#b8af82" /><polygon
           points="0,0 31.93,0 24.2079,7.76321 7.90264,7.76321 "
           id="polygon350"
           style="fill:#80795b" /><polygon
           points="31.93,0 31.93,31.9 24.2079,24.1368 24.2079,7.76321 "
           id="polygon352"
           style="fill:#5e5b43" /><polygon
           points="24.2079,24.1368 31.93,31.9 0,31.9 7.87486,24.1368 "
           id="polygon354"
           style="fill:#9a916c" /></g></g><g
       id="g024"
       transform="translate(-0.1241928,35.031302)"
       inkscape:label="g024"><g
         transform="matrix(0.09599999,0,0,0.09599999,2.3042742,7.5438379)"
         id="connector0pin"
         inkscape:label="connector0pin"><rect
           width="31.93"
           x="0"
           y="0"
           height="31.9"
           id="connector31pin-2"
           style="fill:#8d8c8c" /><rect
           width="16.444201"
           x="7.7915301"
           y="7.7354398"
           height="16.415199"
           id="rect294-1"
           style="fill:#8c8663" /><polygon
           points="7.79153,6.97162 0,0 0,31.9 7.79153,24.1368 "
           id="polygon296-1"
           style="fill:#b8af82" /><polygon
           points="0,0 31.93,0 24.2079,7.76321 7.90264,7.76321 "
           id="polygon298-0"
           style="fill:#80795b" /><polygon
           points="31.93,0 31.93,31.9 24.2079,24.1368 24.2079,7.76321 "
           id="polygon300-2"
           style="fill:#5e5b43" /><polygon
           points="24.2079,24.1368 31.93,31.9 0,31.9 7.87486,24.1368 "
           id="polygon302-2"
           style="fill:#9a916c" /></g><g
         transform="matrix(0.09599999,0,0,0.09599999,11.904273,7.5438379)"
         id="connector2pin"
         inkscape:label="connector2pin"><rect
           width="31.93"
           x="0"
           y="0"
           height="31.9"
           id="connector30pin-5"
           style="fill:#8d8c8c" /><rect
           width="16.444201"
           x="7.7915301"
           y="7.7354398"
           height="16.415199"
           id="rect320-3"
           style="fill:#8c8663" /><polygon
           points="0,31.9 7.79153,24.1368 7.79153,6.97162 0,0 "
           id="polygon322-3"
           style="fill:#b8af82" /><polygon
           points="24.2079,7.76321 7.90264,7.76321 0,0 31.93,0 "
           id="polygon324-0"
           style="fill:#80795b" /><polygon
           points="24.2079,24.1368 24.2079,7.76321 31.93,0 31.93,31.9 "
           id="polygon326-1"
           style="fill:#5e5b43" /><polygon
           points="0,31.9 7.87486,24.1368 24.2079,24.1368 31.93,31.9 "
           id="polygon328-9"
           style="fill:#9a916c" /></g><g
         transform="matrix(0.09599999,0,0,0.09599999,21.504273,7.5438379)"
         id="connector4pin"
         inkscape:label="connector4pin"><rect
           width="31.93"
           x="0"
           y="0"
           height="31.9"
           id="connector29pin-7"
           style="fill:#8d8c8c" /><rect
           width="16.444201"
           x="7.7915301"
           y="7.7354398"
           height="16.415199"
           id="rect346-1"
           style="fill:#8c8663" /><polygon
           points="7.79153,6.97162 0,0 0,31.9 7.79153,24.1368 "
           id="polygon348-9"
           style="fill:#b8af82" /><polygon
           points="0,0 31.93,0 24.2079,7.76321 7.90264,7.76321 "
           id="polygon350-6"
           style="fill:#80795b" /><polygon
           points="31.93,0 31.93,31.9 24.2079,24.1368 24.2079,7.76321 "
           id="polygon352-6"
           style="fill:#5e5b43" /><polygon
           points="24.2079,24.1368 31.93,31.9 0,31.9 7.87486,24.1368 "
           id="polygon354-0"
           style="fill:#9a916c" /></g></g><g
       transform="translate(2.2246433,21.624484)"
       id="copper1"
       gorn="0.4.0"><circle
         cy="4.2423444"
         id="nonconn2"
         gorn="0.4.0.0"
         r="1.8727553"
         cx="20.688354"
         style="stroke:#f7bd13;stroke-width:0;fill:#ffffff;fill-opacity:1"
         inkscape:label="nonconn2" /><circle
         cy="11.922344"
         id="nonconn1"
         gorn="0.4.0.1"
         r="1.8727553"
         cx="20.688354"
         style="stroke:#f7bd13;stroke-width:0;fill:#ffffff;fill-opacity:1"
         inkscape:label="nonconn1" /><circle
         cy="8.0823441"
         id="nonconn0"
         gorn="0.4.0.2"
         r="1.8727553"
         cx="1.4878002"
         style="stroke:#f7bd13;stroke-width:0;fill:#ffffff;fill-opacity:1"
         inkscape:label="nonconn0" /><circle
         cy="5.6827493"
         id="connector5pad"
         style="color:#000000;display:inline;overflow:visible;visibility:visible;opacity:1;fill:none;fill-opacity:1;fill-rule:nonzero;stroke:#9a916c;stroke-width:1.48724413;stroke-miterlimit:4;stroke-dasharray:none;stroke-opacity:1;marker:none;enable-background:accumulate"
         gorn="0.4.0.3"
         drill="no"
         r="0.74362206"
         cx="15.887243" /><circle
         cy="10.482749"
         id="connector4pad"
         style="color:#000000;display:inline;overflow:visible;visibility:visible;opacity:1;fill:none;fill-opacity:1;fill-rule:nonzero;stroke:#9a916c;stroke-width:1.48724413;stroke-miterlimit:4;stroke-dasharray:none;stroke-opacity:1;marker:none;enable-background:accumulate"
         gorn="0.4.0.6"
         drill="no"
         r="0.74362206"
         cx="15.887243" /><circle
         cy="5.6827493"
         id="connector3pad"
         style="color:#000000;display:inline;overflow:visible;visibility:visible;opacity:1;fill:none;fill-opacity:1;fill-rule:nonzero;stroke:#9a916c;stroke-width:1.48724413;stroke-miterlimit:4;stroke-dasharray:none;stroke-opacity:1;marker:none;enable-background:accumulate"
         gorn="0.4.0.5"
         drill="no"
         r="0.74362206"
         cx="11.087244" /><circle
         cy="10.482749"
         id="connector2pad"
         style="color:#000000;display:inline;overflow:visible;visibility:visible;opacity:1;fill:none;fill-opacity:1;fill-rule:nonzero;stroke:#9a916c;stroke-width:1.48724413;stroke-miterlimit:4;stroke-dasharray:none;stroke-opacity:1;marker:none;enable-background:accumulate"
         gorn="0.4.0.7"
         drill="no"
         r="0.74362206"
         cx="11.087244" /><circle
         cy="5.6827493"
         id="connector1pad"
         style="color:#000000;display:inline;overflow:visible;visibility:visible;opacity:1;fill:none;fill-opacity:1;fill-rule:nonzero;stroke:#9a916c;stroke-width:1.48724413;stroke-miterlimit:4;stroke-dasharray:none;stroke-opacity:1;marker:none;enable-background:accumulate"
         gorn="0.4.0.4"
         drill="no"
         r="0.74362206"
         cx="6.2872438" /><circle
         cy="10.482749"
         id="connector0pad"
         style="color:#000000;display:inline;overflow:visible;visibility:visible;opacity:1;fill:none;fill-opacity:1;fill-rule:nonzero;stroke:#9a916c;stroke-width:1.48724413;stroke-miterlimit:4;stroke-dasharray:none;stroke-opacity:1;marker:none;enable-background:accumulate"
         gorn="0.4.0.8"
         drill="no"
         cx="6.2872438"
         r="0.74362206" /></g></g></svg>