<?xml version="1.0" encoding="utf-8"?>
<!-- Generator: Adobe Illustrator 16.0.0, SVG Export Plug-In . SVG Version: 6.00 Build 0)  -->
<svg version="1.2" baseProfile="tiny" id="schematic" xmlns:svg="http://www.w3.org/2000/svg"
	 xmlns="http://www.w3.org/2000/svg" xmlns:xlink="http://www.w3.org/1999/xlink" x="0px" y="0px" width="0.6097222in" height="0.4125in"
	 viewBox="0 0 43.9 29.7" xml:space="preserve">
<rect x="7.6" y="0.6" fill="#FFFFFF" width="28.8" height="21.6"/>
<text transform="matrix(1 0 0 1 14.0681 12.5806)" font-family="'DroidSans'" font-size="4.1102">S</text>
<text transform="matrix(1 0 0 1 16.2009 12.5806)" font-family="'DroidSans'" font-size="4.1102">P</text>
<text transform="matrix(1 0 0 1 18.5291 12.5806)" font-family="'DroidSans'" font-size="4.1102">X</text>
<text transform="matrix(1 0 0 1 20.7771 12.5806)" font-family="'DroidSans'" font-size="4.1102">2</text>
<text transform="matrix(1 0 0 1 23.0408 12.5806)" font-family="'DroidSans'" font-size="4.1102">9</text>
<text transform="matrix(1 0 0 1 25.3044 12.5806)" font-family="'DroidSans'" font-size="4.1102">5</text>
<text transform="matrix(1 0 0 1 27.5681 12.5806)" font-family="'DroidSans'" font-size="4.1102">4</text>
<line fill="none" stroke="#000000" stroke-width="0.9" stroke-linecap="round" x1="7.6" y1="22.2" x2="36.3" y2="22.2"/>
<line fill="none" stroke="#000000" stroke-width="0.9" stroke-linecap="round" x1="36.3" y1="22.2" x2="36.3" y2="0.6"/>
<line fill="none" stroke="#000000" stroke-width="0.9" stroke-linecap="round" x1="36.3" y1="0.6" x2="7.6" y2="0.6"/>
<line fill="none" stroke="#000000" stroke-width="0.9" stroke-linecap="round" x1="7.6" y1="0.6" x2="7.6" y2="22.2"/>
<line id="connector0pin" fill="none" stroke="#787878" stroke-width="0.75" stroke-linecap="round" x1="0.3" y1="7.8" x2="7.6" y2="7.8"/>
<path id="connector0terminal" fill="none" d="M0.3,7.8L0.3,7.8L0.3,7.8z"/>
<text transform="matrix(1 0 0 1 3.2625 6.7251)" fill="#8C8C8C" font-family="'DroidSans'" font-size="2.5">1</text>
<text transform="matrix(1 0 0 1 8.9832 8.4761)" fill="#787878" font-family="'DroidSans'" font-size="3.5">IN</text>
<line id="connector1pin" fill="none" stroke="#787878" stroke-width="0.75" stroke-linecap="round" x1="22" y1="29.4" x2="22" y2="22.2"/>
<polygon id="connector1terminal" fill="none" points="22,29.4 22,29.4 22,29.4 "/>
<g transform="translate(7.37306,9.0932)">
	
		<text transform="matrix(-1.836970e-016 -1 1 -1.836970e-016 13.5261 17.3731)" fill="#8C8C8C" font-family="'DroidSans'" font-size="2.5">2</text>
</g>
<g transform="translate(7.99042,7.08237)">
	
		<text transform="matrix(-1.836970e-016 -1 1 -1.836970e-016 15.0338 13.8683)" fill="#787878" font-family="'DroidSans'" font-size="3.5">GND</text>
</g>
<line id="connector2pin" fill="none" stroke="#787878" stroke-width="0.75" stroke-linecap="round" x1="43.6" y1="7.8" x2="36.3" y2="7.8"/>
<path id="connector2terminal" fill="none" d="M43.6,7.8L43.6,7.8L43.6,7.8z"/>
<text transform="matrix(1 0 0 1 39.2625 6.7251)" fill="#8C8C8C" font-family="'DroidSans'" font-size="2.5">3</text>
<text transform="matrix(1 0 0 1 28.1433 8.4761)" fill="#787878" font-family="'DroidSans'" font-size="3.5">OUT</text>
</svg>
