<?xml version="1.0" encoding="utf-8"?>
<!-- Generator: Adobe Illustrator 22.0.1, SVG Export Plug-In . SVG Version: 6.00 Build 0)  -->
<svg version="1.2" baseProfile="tiny" id="schematic" xmlns:svg="http://www.w3.org/2000/svg"
	 xmlns="http://www.w3.org/2000/svg" xmlns:xlink="http://www.w3.org/1999/xlink" x="0px" y="0px" width="0.6097222in" height="0.4125in"
	 viewBox="0 0 43.9 29.7" xml:space="preserve">
<rect x="7.6" y="0.6" fill="#FFFFFF" width="28.8" height="21.6"/>
<text transform="matrix(1 0 0 1 14.0682 12.5801)" font-family="'DroidSans'" font-size="4.1102px">S</text>
<text transform="matrix(1 0 0 1 16.2015 12.5801)" font-family="'DroidSans'" font-size="4.1102px">P</text>
<text transform="matrix(1 0 0 1 18.5297 12.5801)" font-family="'DroidSans'" font-size="4.1102px">X</text>
<text transform="matrix(1 0 0 1 20.7772 12.5801)" font-family="'DroidSans'" font-size="4.1102px">2</text>
<text transform="matrix(1 0 0 1 23.0414 12.5801)" font-family="'DroidSans'" font-size="4.1102px">9</text>
<text transform="matrix(1 0 0 1 25.3051 12.5801)" font-family="'DroidSans'" font-size="4.1102px">5</text>
<text transform="matrix(1 0 0 1 27.5687 12.5801)" font-family="'DroidSans'" font-size="4.1102px">4</text>
<line fill="none" stroke="#000000" stroke-width="0.9" stroke-linecap="round" x1="7.6" y1="22.2" x2="36.3" y2="22.2"/>
<line fill="none" stroke="#000000" stroke-width="0.9" stroke-linecap="round" x1="36.3" y1="22.2" x2="36.3" y2="0.6"/>
<line fill="none" stroke="#000000" stroke-width="0.9" stroke-linecap="round" x1="36.3" y1="0.6" x2="7.6" y2="0.6"/>
<line fill="none" stroke="#000000" stroke-width="0.9" stroke-linecap="round" x1="7.6" y1="0.6" x2="7.6" y2="22.2"/>
<line id="connector0pin" fill="none" stroke="#787878" stroke-width="0.75" stroke-linecap="round" x1="0.3" y1="7.8" x2="7.6" y2="7.8"/>
<path id="connector0terminal" fill="none" d="M0.3,7.8L0.3,7.8L0.3,7.8z"/>
<text transform="matrix(1 0 0 1 3.2625 6.7249)" fill="#8C8C8C" font-family="'DroidSans'" font-size="2.5px">1</text>
<text transform="matrix(1 0 0 1 8.9836 8.4758)" fill="#787878" font-family="'DroidSans'" font-size="3.5px">IN</text>
<line id="connector1pin" fill="none" stroke="#787878" stroke-width="0.75" stroke-linecap="round" x1="22" y1="29.4" x2="22" y2="22.2"/>
<rect id="connector1terminal" x="22" y="29.4" fill="none" width="0" height="0"/>
<g transform="translate(7.37306,9.0932)">
	
		<text transform="matrix(-1.836970e-16 -1 1 -1.836970e-16 13.5261 17.3733)" fill="#8C8C8C" font-family="'DroidSans'" font-size="2.5px">2</text>
</g>
<g transform="translate(7.99042,7.08237)">
	
		<text transform="matrix(-1.836970e-16 -1 1 -1.836970e-16 14.6588 12.9935)" fill="#787878" font-family="'DroidSans'" font-size="3.5px">ADJ</text>
</g>
<line id="connector2pin" fill="none" stroke="#787878" stroke-width="0.75" stroke-linecap="round" x1="43.6" y1="7.8" x2="36.3" y2="7.8"/>
<path id="connector2terminal" fill="none" d="M43.6,7.8L43.6,7.8L43.6,7.8z"/>
<text transform="matrix(1 0 0 1 39.2625 6.7249)" fill="#8C8C8C" font-family="'DroidSans'" font-size="2.5px">3</text>
<text transform="matrix(1 0 0 1 28.1433 8.4758)" fill="#787878" font-family="'DroidSans'" font-size="3.5px">OUT</text>
</svg>
