<?xml version="1.0" encoding="utf-8"?>
<!-- Generator: Adobe Illustrator 22.0.1, SVG Export Plug-In . SVG Version: 6.00 Build 0)  -->
<svg version="1.2" baseProfile="tiny" id="Calque_1"
	 xmlns="http://www.w3.org/2000/svg" xmlns:xlink="http://www.w3.org/1999/xlink" x="0px" y="0px" width="112.3px" height="43.2px"
	 viewBox="0 0 112.3 43.2" xml:space="preserve">
<g id="breadboard">
	<g id="icon">
		<rect y="0" fill="#1F7A34" stroke="#000000" stroke-width="4.375000e-02" width="112.3" height="43.2"/>
		<g>
			<rect y="4.2" fill="#CCCCCC" stroke="#000000" stroke-width="4.375000e-02" width="112.3" height="18"/>
			<rect x="3.5" y="7.4" fill="#EEEEEE" stroke="#000000" stroke-width="4.375000e-02" width="4" height="3.3"/>
			<polygon fill="#AAAAAA" stroke="#000000" stroke-width="4.375000e-02" points="7.5,7.4 3.5,7.4 1,4.8 1,4.8 10,4.8 			"/>
			<polygon fill="#AAAAAA" stroke="#000000" stroke-width="4.375000e-02" points="3.5,10.8 1,13.4 1,4.8 3.5,7.4 			"/>
			<polygon fill="#AAAAAA" stroke="#000000" stroke-width="4.375000e-02" points="7.5,10.8 3.5,10.8 1,13.4 10,13.4 			"/>
			<polygon fill="#AAAAAA" stroke="#000000" stroke-width="4.375000e-02" points="7.5,10.8 10,13.4 10,4.8 7.5,7.4 			"/>
			<rect x="14.9" y="7.4" fill="#EEEEEE" stroke="#000000" stroke-width="4.375000e-02" width="4" height="3.3"/>
			<polygon fill="#AAAAAA" stroke="#000000" stroke-width="4.375000e-02" points="18.9,7.4 14.9,7.4 12.4,4.8 12.4,4.8 21.4,4.8 			
				"/>
			<polygon fill="#AAAAAA" stroke="#000000" stroke-width="4.375000e-02" points="14.9,10.8 12.4,13.4 12.4,4.8 14.9,7.4 			"/>
			<polygon fill="#AAAAAA" stroke="#000000" stroke-width="4.375000e-02" points="18.9,10.8 14.9,10.8 12.4,13.4 21.4,13.4 			"/>
			<polygon fill="#AAAAAA" stroke="#000000" stroke-width="4.375000e-02" points="18.9,10.8 21.4,13.4 21.4,4.8 18.9,7.4 			"/>
			<rect x="26" y="7.4" fill="#EEEEEE" stroke="#000000" stroke-width="4.375000e-02" width="4" height="3.3"/>
			<polygon fill="#AAAAAA" stroke="#000000" stroke-width="4.375000e-02" points="30,7.4 26,7.4 23.5,4.8 23.5,4.8 32.5,4.8 			"/>
			<polygon fill="#AAAAAA" stroke="#000000" stroke-width="4.375000e-02" points="26,10.8 23.5,13.4 23.5,4.8 26,7.4 			"/>
			<polygon fill="#AAAAAA" stroke="#000000" stroke-width="4.375000e-02" points="30,10.8 26,10.8 23.5,13.4 32.5,13.4 			"/>
			<polygon fill="#AAAAAA" stroke="#000000" stroke-width="4.375000e-02" points="30,10.8 32.5,13.4 32.5,4.8 30,7.4 			"/>
			<rect x="37.3" y="7.4" fill="#EEEEEE" stroke="#000000" stroke-width="4.375000e-02" width="4" height="3.3"/>
			<polygon fill="#AAAAAA" stroke="#000000" stroke-width="4.375000e-02" points="41.2,7.4 37.3,7.4 34.7,4.8 34.7,4.8 43.8,4.8 			
				"/>
			<polygon fill="#AAAAAA" stroke="#000000" stroke-width="4.375000e-02" points="37.3,10.8 34.7,13.4 34.7,4.8 37.3,7.4 			"/>
			<polygon fill="#AAAAAA" stroke="#000000" stroke-width="4.375000e-02" points="41.2,10.8 37.3,10.8 34.7,13.4 43.8,13.4 			"/>
			<polygon fill="#AAAAAA" stroke="#000000" stroke-width="4.375000e-02" points="41.2,10.8 43.8,13.4 43.8,4.8 41.2,7.4 			"/>
			<rect x="48.5" y="7.4" fill="#EEEEEE" stroke="#000000" stroke-width="4.375000e-02" width="4" height="3.3"/>
			<polygon fill="#AAAAAA" stroke="#000000" stroke-width="4.375000e-02" points="52.5,7.4 48.5,7.4 46,4.8 46,4.8 55,4.8 			"/>
			<polygon fill="#AAAAAA" stroke="#000000" stroke-width="4.375000e-02" points="48.5,10.8 46,13.4 46,4.8 48.5,7.4 			"/>
			<polygon fill="#AAAAAA" stroke="#000000" stroke-width="4.375000e-02" points="52.5,10.8 48.5,10.8 46,13.4 55,13.4 			"/>
			<polygon fill="#AAAAAA" stroke="#000000" stroke-width="4.375000e-02" points="52.5,10.8 55,13.4 55,4.8 52.5,7.4 			"/>
			<rect x="59.8" y="7.4" fill="#EEEEEE" stroke="#000000" stroke-width="4.375000e-02" width="4" height="3.3"/>
			<polygon fill="#AAAAAA" stroke="#000000" stroke-width="4.375000e-02" points="63.7,7.4 59.8,7.4 57.2,4.8 57.2,4.8 66.3,4.8 			
				"/>
			<polygon fill="#AAAAAA" stroke="#000000" stroke-width="4.375000e-02" points="59.8,10.8 57.2,13.4 57.2,4.8 59.8,7.4 			"/>
			<polygon fill="#AAAAAA" stroke="#000000" stroke-width="4.375000e-02" points="63.7,10.8 59.8,10.8 57.2,13.4 66.3,13.4 			"/>
			<polygon fill="#AAAAAA" stroke="#000000" stroke-width="4.375000e-02" points="63.7,10.8 66.3,13.4 66.3,4.8 63.7,7.4 			"/>
			<rect x="71" y="7.4" fill="#EEEEEE" stroke="#000000" stroke-width="4.375000e-02" width="4" height="3.3"/>
			<polygon fill="#AAAAAA" stroke="#000000" stroke-width="4.375000e-02" points="75,7.4 71,7.4 68.5,4.8 68.5,4.8 77.5,4.8 			"/>
			<polygon fill="#AAAAAA" stroke="#000000" stroke-width="4.375000e-02" points="71,10.8 68.5,13.4 68.5,4.8 71,7.4 			"/>
			<polygon fill="#AAAAAA" stroke="#000000" stroke-width="4.375000e-02" points="75,10.8 71,10.8 68.5,13.4 77.5,13.4 			"/>
			<polygon fill="#AAAAAA" stroke="#000000" stroke-width="4.375000e-02" points="75,10.8 77.5,13.4 77.5,4.8 75,7.4 			"/>
			<rect x="82.3" y="7.4" fill="#EEEEEE" stroke="#000000" stroke-width="4.375000e-02" width="4" height="3.3"/>
			<polygon fill="#AAAAAA" stroke="#000000" stroke-width="4.375000e-02" points="86.2,7.4 82.3,7.4 79.7,4.8 79.7,4.8 88.8,4.8 			
				"/>
			<polygon fill="#AAAAAA" stroke="#000000" stroke-width="4.375000e-02" points="82.3,10.8 79.7,13.4 79.7,4.8 82.3,7.4 			"/>
			<polygon fill="#AAAAAA" stroke="#000000" stroke-width="4.375000e-02" points="86.2,10.8 82.3,10.8 79.7,13.4 88.8,13.4 			"/>
			<polygon fill="#AAAAAA" stroke="#000000" stroke-width="4.375000e-02" points="86.2,10.8 88.8,13.4 88.8,4.8 86.2,7.4 			"/>
			<rect x="93.5" y="7.4" fill="#EEEEEE" stroke="#000000" stroke-width="4.375000e-02" width="4" height="3.3"/>
			<polygon fill="#AAAAAA" stroke="#000000" stroke-width="4.375000e-02" points="97.5,7.4 93.5,7.4 91,4.8 91,4.8 100,4.8 			"/>
			<polygon fill="#AAAAAA" stroke="#000000" stroke-width="4.375000e-02" points="93.5,10.8 91,13.4 91,4.8 93.5,7.4 			"/>
			<polygon fill="#AAAAAA" stroke="#000000" stroke-width="4.375000e-02" points="97.5,10.8 93.5,10.8 91,13.4 100,13.4 			"/>
			<polygon fill="#AAAAAA" stroke="#000000" stroke-width="4.375000e-02" points="97.5,10.8 100,13.4 100,4.8 97.5,7.4 			"/>
			<rect x="104.8" y="7.4" fill="#EEEEEE" stroke="#000000" stroke-width="4.375000e-02" width="4" height="3.3"/>
			<polygon fill="#AAAAAA" stroke="#000000" stroke-width="4.375000e-02" points="108.8,7.4 104.8,7.4 102.3,4.8 102.3,4.8 
				111.3,4.8 			"/>
			<polygon fill="#AAAAAA" stroke="#000000" stroke-width="4.375000e-02" points="104.8,10.8 102.3,13.4 102.3,4.8 104.8,7.4 			"/>
			<polygon fill="#AAAAAA" stroke="#000000" stroke-width="4.375000e-02" points="108.8,10.8 104.8,10.8 102.3,13.4 111.3,13.4 			
				"/>
			<polygon fill="#AAAAAA" stroke="#000000" stroke-width="4.375000e-02" points="108.8,10.8 111.3,13.4 111.3,4.8 108.8,7.4 			"/>
			<rect y="0" fill="#CCCCCC" stroke="#000000" stroke-width="4.375000e-02" width="11.3" height="4.2"/>
			<rect x="22.5" y="0" fill="#CCCCCC" stroke="#000000" stroke-width="4.375000e-02" width="11.3" height="4.2"/>
			<rect x="45" y="0" fill="#CCCCCC" stroke="#000000" stroke-width="4.375000e-02" width="22.3" height="4.2"/>
			<rect x="78.5" y="0" fill="#CCCCCC" stroke="#000000" stroke-width="4.375000e-02" width="11.3" height="4.2"/>
			<rect x="101" y="0" fill="#CCCCCC" stroke="#000000" stroke-width="4.375000e-02" width="11.3" height="4.2"/>
			<rect x="3.9" y="16.5" fill="#EEEEEE" stroke="#000000" stroke-width="4.375000e-02" width="3.2" height="5.8"/>
			<rect x="15.2" y="16.5" fill="#EEEEEE" stroke="#000000" stroke-width="4.375000e-02" width="3.2" height="5.8"/>
			<rect x="26.4" y="16.5" fill="#EEEEEE" stroke="#000000" stroke-width="4.375000e-02" width="3.2" height="5.8"/>
			<rect x="37.7" y="16.5" fill="#EEEEEE" stroke="#000000" stroke-width="4.375000e-02" width="3.2" height="5.8"/>
			<rect x="48.9" y="16.5" fill="#EEEEEE" stroke="#000000" stroke-width="4.375000e-02" width="3.2" height="5.8"/>
			<rect x="60.2" y="16.5" fill="#EEEEEE" stroke="#000000" stroke-width="4.375000e-02" width="3.2" height="5.8"/>
			<rect x="71.4" y="16.5" fill="#EEEEEE" stroke="#000000" stroke-width="4.375000e-02" width="3.2" height="5.8"/>
			<rect x="82.7" y="16.5" fill="#EEEEEE" stroke="#000000" stroke-width="4.375000e-02" width="3.2" height="5.8"/>
			<rect x="93.9" y="16.5" fill="#EEEEEE" stroke="#000000" stroke-width="4.375000e-02" width="3.2" height="5.8"/>
			<rect x="105.2" y="16.5" fill="#EEEEEE" stroke="#000000" stroke-width="4.375000e-02" width="3.2" height="5.8"/>
		</g>
		<g transform="matrix(1, 0, 0, 1, 14.184, 23.4756)">
			<g>
				<g transform="rotate(-90)">
					<g>
						<text transform="matrix(1 0 0 1 -15.1569 10.7179)" fill="#FFFFFF" font-family="'OCRA'" font-size="3.24px">1</text>
					</g>
				</g>
			</g>
		</g>
		<text id="label" transform="matrix(1 0 0 1 42.6198 30.4829)" fill="#FFFFFF" font-family="'OCRA'" font-size="4.68px">MOLEX KK</text>
		<g transform="matrix(1, 0, 0, 1, 14.184, 23.4756)">
			<g>
				<g transform="rotate(-90)">
					<g>
						<text transform="matrix(1 0 0 1 -15.1569 17.9179)" fill="#FFFFFF" font-family="'OCRA'" font-size="3.24px">2</text>
					</g>
				</g>
			</g>
		</g>
		<g transform="matrix(1, 0, 0, 1, 14.184, 23.4756)">
			<g>
				<g transform="rotate(-90)">
					<g>
						<text transform="matrix(1 0 0 1 -15.1569 25.1177)" fill="#FFFFFF" font-family="'OCRA'" font-size="3.24px">3</text>
					</g>
				</g>
			</g>
		</g>
		<g transform="matrix(1, 0, 0, 1, 14.184, 23.4756)">
			<g>
				<g transform="rotate(-90)">
					<g>
						<text transform="matrix(1 0 0 1 -15.1569 32.3205)" fill="#FFFFFF" font-family="'OCRA'" font-size="3.24px">4</text>
					</g>
				</g>
			</g>
		</g>
		<g transform="matrix(1, 0, 0, 1, 14.184, 23.4756)">
			<g>
				<g transform="rotate(-90)">
					<g>
						<text transform="matrix(1 0 0 1 -15.1569 39.5206)" fill="#FFFFFF" font-family="'OCRA'" font-size="3.24px">5</text>
					</g>
				</g>
			</g>
		</g>
		<g transform="matrix(1, 0, 0, 1, 14.184, 23.4756)">
			<g>
				<g transform="rotate(-90)">
					<g>
						<text transform="matrix(1 0 0 1 -15.1569 46.7193)" fill="#FFFFFF" font-family="'OCRA'" font-size="3.24px">6</text>
					</g>
				</g>
			</g>
		</g>
		<g transform="matrix(1, 0, 0, 1, 14.184, 23.4756)">
			<g>
				<g transform="rotate(-90)">
					<g>
						<text transform="matrix(1 0 0 1 -15.1569 53.9191)" fill="#FFFFFF" font-family="'OCRA'" font-size="3.24px">7</text>
					</g>
				</g>
			</g>
		</g>
		<g transform="matrix(1, 0, 0, 1, 14.184, 23.4756)">
			<g>
				<g transform="rotate(-90)">
					<g>
						<text transform="matrix(1 0 0 1 -15.1569 61.1192)" fill="#FFFFFF" font-family="'OCRA'" font-size="3.24px">8</text>
					</g>
				</g>
			</g>
		</g>
		<g transform="matrix(1, 0, 0, 1, 14.184, 23.4756)">
			<g>
				<g transform="rotate(-90)">
					<g>
						<text transform="matrix(1 0 0 1 -15.1569 68.3217)" fill="#FFFFFF" font-family="'OCRA'" font-size="3.24px">9</text>
					</g>
				</g>
			</g>
		</g>
		<g transform="matrix(1, 0, 0, 1, 14.184, 23.4756)">
			<g>
				<g transform="rotate(-90)">
					<g>
						<text transform="matrix(1 0 0 1 -15.1569 75.5217)" fill="#FFFFFF" font-family="'OCRA'" font-size="3.24px">10</text>
					</g>
				</g>
			</g>
		</g>
	</g>
	<g id="connector10pin">
		<rect x="88" y="39.8" fill="#8C8663" width="1.2" height="1.2"/>
		<polygon fill="#B8AF82" points="87.4,41.6 88,41 88,39.8 87.4,39.3 		"/>
		<polygon fill="#80795B" points="89.2,39.8 88,39.8 87.4,39.3 89.7,39.3 		"/>
		<polygon fill="#5E5B43" points="89.2,41 89.2,39.8 89.7,39.3 89.7,41.6 		"/>
		<polygon fill="#9A916C" points="87.4,41.6 88,41 89.2,41 89.7,41.6 		"/>
	</g>
	<g id="connector9pin">
		<rect x="80.8" y="39.8" fill="#8C8663" width="1.2" height="1.2"/>
		<polygon fill="#B8AF82" points="80.2,41.6 80.8,41 80.8,39.8 80.2,39.3 		"/>
		<polygon fill="#80795B" points="82,39.8 80.8,39.8 80.2,39.3 82.5,39.3 		"/>
		<polygon fill="#5E5B43" points="82,41 82,39.8 82.5,39.3 82.5,41.6 		"/>
		<polygon fill="#9A916C" points="80.2,41.6 80.8,41 82,41 82.5,41.6 		"/>
	</g>
	<g id="connector8pin">
		<rect x="73.6" y="39.8" fill="#8C8663" width="1.2" height="1.2"/>
		<polygon fill="#B8AF82" points="73,41.6 73.6,41 73.6,39.8 73,39.3 		"/>
		<polygon fill="#80795B" points="74.8,39.8 73.6,39.8 73,39.3 75.3,39.3 		"/>
		<polygon fill="#5E5B43" points="74.8,41 74.8,39.8 75.3,39.3 75.3,41.6 		"/>
		<polygon fill="#9A916C" points="73,41.6 73.6,41 74.8,41 75.3,41.6 		"/>
	</g>
	<g id="connector7pin">
		<rect x="66.4" y="39.8" fill="#8C8663" width="1.2" height="1.2"/>
		<polygon fill="#B8AF82" points="65.8,41.6 66.4,41 66.4,39.8 65.8,39.3 		"/>
		<polygon fill="#80795B" points="67.6,39.8 66.4,39.8 65.8,39.3 68.1,39.3 		"/>
		<polygon fill="#5E5B43" points="67.6,41 67.6,39.8 68.1,39.3 68.1,41.6 		"/>
		<polygon fill="#9A916C" points="65.8,41.6 66.4,41 67.6,41 68.1,41.6 		"/>
	</g>
	<g id="connector6pin">
		<rect x="59.2" y="39.8" fill="#8C8663" width="1.2" height="1.2"/>
		<polygon fill="#B8AF82" points="58.6,41.6 59.2,41 59.2,39.8 58.6,39.3 		"/>
		<polygon fill="#80795B" points="60.4,39.8 59.2,39.8 58.6,39.3 60.9,39.3 		"/>
		<polygon fill="#5E5B43" points="60.4,41 60.4,39.8 60.9,39.3 60.9,41.6 		"/>
		<polygon fill="#9A916C" points="58.6,41.6 59.2,41 60.4,41 60.9,41.6 		"/>
	</g>
	<g id="connector5pin">
		<rect x="52" y="39.8" fill="#8C8663" width="1.2" height="1.2"/>
		<polygon fill="#B8AF82" points="51.4,41.6 52,41 52,39.8 51.4,39.3 		"/>
		<polygon fill="#80795B" points="53.2,39.8 52,39.8 51.4,39.3 53.7,39.3 		"/>
		<polygon fill="#5E5B43" points="53.2,41 53.2,39.8 53.7,39.3 53.7,41.6 		"/>
		<polygon fill="#9A916C" points="51.4,41.6 52,41 53.2,41 53.7,41.6 		"/>
	</g>
	<g id="connector4pin">
		<rect x="44.8" y="39.8" fill="#8C8663" width="1.2" height="1.2"/>
		<polygon fill="#B8AF82" points="44.2,41.6 44.8,41 44.8,39.8 44.2,39.3 		"/>
		<polygon fill="#80795B" points="46,39.8 44.8,39.8 44.2,39.3 46.5,39.3 		"/>
		<polygon fill="#5E5B43" points="46,41 46,39.8 46.5,39.3 46.5,41.6 		"/>
		<polygon fill="#9A916C" points="44.2,41.6 44.8,41 46,41 46.5,41.6 		"/>
	</g>
	<g id="connector3pin">
		<rect x="37.6" y="39.8" fill="#8C8663" width="1.2" height="1.2"/>
		<polygon fill="#B8AF82" points="37,41.6 37.6,41 37.6,39.8 37,39.3 		"/>
		<polygon fill="#80795B" points="38.8,39.8 37.6,39.8 37,39.3 39.3,39.3 		"/>
		<polygon fill="#5E5B43" points="38.8,41 38.8,39.8 39.3,39.3 39.3,41.6 		"/>
		<polygon fill="#9A916C" points="37,41.6 37.6,41 38.8,41 39.3,41.6 		"/>
	</g>
	<g id="connector2pin">
		<rect x="30.4" y="39.8" fill="#8C8663" width="1.2" height="1.2"/>
		<polygon fill="#B8AF82" points="29.8,41.6 30.4,41 30.4,39.8 29.8,39.3 		"/>
		<polygon fill="#80795B" points="31.6,39.8 30.4,39.8 29.8,39.3 32.1,39.3 		"/>
		<polygon fill="#5E5B43" points="31.6,41 31.6,39.8 32.1,39.3 32.1,41.6 		"/>
		<polygon fill="#9A916C" points="29.8,41.6 30.4,41 31.6,41 32.1,41.6 		"/>
	</g>
	<g id="connector1pin">
		<rect x="23.2" y="39.8" fill="#8C8663" width="1.2" height="1.2"/>
		<polygon fill="#B8AF82" points="22.6,41.6 23.2,41 23.2,39.8 22.6,39.3 		"/>
		<polygon fill="#80795B" points="24.4,39.8 23.2,39.8 22.6,39.3 24.9,39.3 		"/>
		<polygon fill="#5E5B43" points="24.4,41 24.4,39.8 24.9,39.3 24.9,41.6 		"/>
		<polygon fill="#9A916C" points="22.6,41.6 23.2,41 24.4,41 24.9,41.6 		"/>
	</g>
</g>
</svg>
