<?xml version="1.0" encoding="utf-8"?>
<!-- Generator: Adobe Illustrator 22.0.1, SVG Export Plug-In . SVG Version: 6.00 Build 0)  -->
<svg version="1.2" baseProfile="tiny" id="Calque_1" xmlns:svg="http://www.w3.org/2000/svg"
	 xmlns="http://www.w3.org/2000/svg" xmlns:xlink="http://www.w3.org/1999/xlink" x="0px" y="0px" width="14.4px" height="72px"
	 viewBox="0 0 14.4 72" xml:space="preserve">
<g id="schematic">
	
		<line id="connector1pin" fill="none" stroke="#000000" stroke-width="0.7" stroke-linecap="round" stroke-linejoin="round" x1="0.4" y1="3.6" x2="7.3" y2="3.6"/>
	<g id="connector0terminal">
	</g>
	<polyline fill="none" stroke="#000000" stroke-width="0.7" stroke-linecap="round" stroke-linejoin="round" points="14.1,5.6 
		9.9,3.6 14.1,1.6 	"/>
	
		<line id="line" fill="none" stroke="#000000" stroke-width="0.7" stroke-linecap="round" stroke-linejoin="round" x1="10.1" y1="3.6" x2="4.8" y2="3.6"/>
	<text transform="matrix(1 0 0 1 4.3615 2.58)" fill="#8C8C8C" font-family="'DroidSans'" font-size="2.5px">1</text>
	
		<line id="connector2pin" fill="none" stroke="#000000" stroke-width="0.7" stroke-linecap="round" stroke-linejoin="round" x1="0.4" y1="10.8" x2="7.3" y2="10.8"/>
	<g id="connector1terminal">
	</g>
	<polyline fill="none" stroke="#000000" stroke-width="0.7" stroke-linecap="round" stroke-linejoin="round" points="14.1,12.8 
		9.9,10.8 14.1,8.8 	"/>
	
		<line id="line_1_" fill="none" stroke="#000000" stroke-width="0.7" stroke-linecap="round" stroke-linejoin="round" x1="10.1" y1="10.8" x2="4.8" y2="10.8"/>
	<text transform="matrix(1 0 0 1 4.3615 9.78)" fill="#8C8C8C" font-family="'DroidSans'" font-size="2.5px">2</text>
	
		<line id="connector3pin" fill="none" stroke="#000000" stroke-width="0.7" stroke-linecap="round" stroke-linejoin="round" x1="0.4" y1="18" x2="7.3" y2="18"/>
	<g id="connector2terminal">
	</g>
	<polyline fill="none" stroke="#000000" stroke-width="0.7" stroke-linecap="round" stroke-linejoin="round" points="14.1,20 
		9.9,18 14.1,16 	"/>
	
		<line id="line_2_" fill="none" stroke="#000000" stroke-width="0.7" stroke-linecap="round" stroke-linejoin="round" x1="10.1" y1="18" x2="4.8" y2="18"/>
	<text transform="matrix(1 0 0 1 4.3615 16.98)" fill="#8C8C8C" font-family="'DroidSans'" font-size="2.5px">3</text>
	
		<line id="connector4pin" fill="none" stroke="#000000" stroke-width="0.7" stroke-linecap="round" stroke-linejoin="round" x1="0.4" y1="25.2" x2="7.3" y2="25.2"/>
	<g id="connector3terminal">
	</g>
	<polyline fill="none" stroke="#000000" stroke-width="0.7" stroke-linecap="round" stroke-linejoin="round" points="14.1,27.2 
		9.9,25.2 14.1,23.2 	"/>
	
		<line id="line_3_" fill="none" stroke="#000000" stroke-width="0.7" stroke-linecap="round" stroke-linejoin="round" x1="10.1" y1="25.2" x2="4.8" y2="25.2"/>
	<text transform="matrix(1 0 0 1 4.3615 24.18)" fill="#8C8C8C" font-family="'DroidSans'" font-size="2.5px">4</text>
	
		<line id="connector5pin" fill="none" stroke="#000000" stroke-width="0.7" stroke-linecap="round" stroke-linejoin="round" x1="0.4" y1="32.4" x2="7.3" y2="32.4"/>
	<g id="connector4terminal">
	</g>
	<polyline fill="none" stroke="#000000" stroke-width="0.7" stroke-linecap="round" stroke-linejoin="round" points="14.1,34.4 
		9.9,32.4 14.1,30.4 	"/>
	
		<line id="line_4_" fill="none" stroke="#000000" stroke-width="0.7" stroke-linecap="round" stroke-linejoin="round" x1="10.1" y1="32.4" x2="4.8" y2="32.4"/>
	<text transform="matrix(1 0 0 1 4.3615 31.38)" fill="#8C8C8C" font-family="'DroidSans'" font-size="2.5px">5</text>
	
		<line id="connector6pin" fill="none" stroke="#000000" stroke-width="0.7" stroke-linecap="round" stroke-linejoin="round" x1="0.4" y1="39.6" x2="7.3" y2="39.6"/>
	<g id="connector5terminal">
	</g>
	<polyline fill="none" stroke="#000000" stroke-width="0.7" stroke-linecap="round" stroke-linejoin="round" points="14.1,41.6 
		9.9,39.6 14.1,37.6 	"/>
	
		<line id="line_5_" fill="none" stroke="#000000" stroke-width="0.7" stroke-linecap="round" stroke-linejoin="round" x1="10.1" y1="39.6" x2="4.8" y2="39.6"/>
	<text transform="matrix(1 0 0 1 4.3615 38.58)" fill="#8C8C8C" font-family="'DroidSans'" font-size="2.5px">6</text>
	
		<line id="connector7pin" fill="none" stroke="#000000" stroke-width="0.7" stroke-linecap="round" stroke-linejoin="round" x1="0.4" y1="46.8" x2="7.3" y2="46.8"/>
	<g id="connector6terminal">
	</g>
	<polyline fill="none" stroke="#000000" stroke-width="0.7" stroke-linecap="round" stroke-linejoin="round" points="14.1,48.8 
		9.9,46.8 14.1,44.8 	"/>
	
		<line id="line_6_" fill="none" stroke="#000000" stroke-width="0.7" stroke-linecap="round" stroke-linejoin="round" x1="10.1" y1="46.8" x2="4.8" y2="46.8"/>
	<text transform="matrix(1 0 0 1 4.3615 45.78)" fill="#8C8C8C" font-family="'DroidSans'" font-size="2.5px">7</text>
	
		<line id="connector8pin" fill="none" stroke="#000000" stroke-width="0.7" stroke-linecap="round" stroke-linejoin="round" x1="0.4" y1="54" x2="7.3" y2="54"/>
	<g id="connector7terminal">
	</g>
	<polyline fill="none" stroke="#000000" stroke-width="0.7" stroke-linecap="round" stroke-linejoin="round" points="14.1,56 
		9.9,54 14.1,52 	"/>
	
		<line id="line_7_" fill="none" stroke="#000000" stroke-width="0.7" stroke-linecap="round" stroke-linejoin="round" x1="10.1" y1="54" x2="4.8" y2="54"/>
	<text transform="matrix(1 0 0 1 4.3615 52.98)" fill="#8C8C8C" font-family="'DroidSans'" font-size="2.5px">8</text>
	
		<line id="connector9pin" fill="none" stroke="#000000" stroke-width="0.7" stroke-linecap="round" stroke-linejoin="round" x1="0.4" y1="61.2" x2="7.3" y2="61.2"/>
	<g id="connector8terminal">
	</g>
	<polyline fill="none" stroke="#000000" stroke-width="0.7" stroke-linecap="round" stroke-linejoin="round" points="14.1,63.2 
		9.9,61.2 14.1,59.2 	"/>
	
		<line id="line_8_" fill="none" stroke="#000000" stroke-width="0.7" stroke-linecap="round" stroke-linejoin="round" x1="10.1" y1="61.2" x2="4.8" y2="61.2"/>
	<text transform="matrix(1 0 0 1 4.3615 60.18)" fill="#8C8C8C" font-family="'DroidSans'" font-size="2.5px">9</text>
	
		<line id="connector10pin" fill="none" stroke="#000000" stroke-width="0.7" stroke-linecap="round" stroke-linejoin="round" x1="0.4" y1="68.4" x2="7.3" y2="68.4"/>
	<g id="connector9terminal">
	</g>
	<polyline fill="none" stroke="#000000" stroke-width="0.7" stroke-linecap="round" stroke-linejoin="round" points="14.1,70.4 
		9.9,68.4 14.1,66.4 	"/>
	
		<line id="line_9_" fill="none" stroke="#000000" stroke-width="0.7" stroke-linecap="round" stroke-linejoin="round" x1="10.1" y1="68.4" x2="4.8" y2="68.4"/>
	<text transform="matrix(1 0 0 1 3.673 67.38)" fill="#8C8C8C" font-family="'DroidSans'" font-size="2.5px">10</text>
</g>
</svg>
