<?xml version="1.0" encoding="utf-8"?>
<!-- Generator: Adobe Illustrator 22.0.1, SVG Export Plug-In . SVG Version: 6.00 Build 0)  -->
<svg version="1.2" baseProfile="tiny"
	 id="breadboard" inkscape:version="0.92.2 (5c3e80d, 2017-08-06)" sodipodi:docname="SWD2x5_breadboard.svg" xmlns:cc="http://creativecommons.org/ns#" xmlns:dc="http://purl.org/dc/elements/1.1/" xmlns:inkscape="http://www.inkscape.org/namespaces/inkscape" xmlns:rdf="http://www.w3.org/1999/02/22-rdf-syntax-ns#" xmlns:sodipodi="http://sodipodi.sourceforge.net/DTD/sodipodi-0.dtd" xmlns:svg="http://www.w3.org/2000/svg"
	 xmlns="http://www.w3.org/2000/svg" xmlns:xlink="http://www.w3.org/1999/xlink" x="0px" y="0px" width="0.8in" height="0.5402777in"
	 viewBox="0 0 57.6 38.9" xml:space="preserve">
<g id="g4">
	<path id="path2" fill="#1F7B34" d="M57.6,35.3c0,2-1.9,3.6-4.1,3.6H4.1c-2.3,0-4.1-1.6-4.1-3.6V3.6C0,1.6,1.9,0,4.1,0h49.4
		c2.3,0,4.1,1.6,4.1,3.6V35.3L57.6,35.3z"/>
</g>
<g id="silkscreen">
	<text id="text18" transform="matrix(1 0 0 1 6.143 13.9168)" fill="#FFFFFF" font-family="'OCRA'" font-size="3.3408px">TDI</text>
	<text id="text24" transform="matrix(1 0 0 1 6.143 21.117)" fill="#FFFFFF" font-family="'OCRA'" font-size="3.3408px">SWO</text>
	<text id="text30" transform="matrix(1 0 0 1 6.143 28.3163)" fill="#FFFFFF" font-family="'OCRA'" font-size="3.3408px">SWCLK</text>
	<text id="text36" transform="matrix(1 0 0 1 5.6693 6.7166)" fill="#FFFFFF" font-family="'OCRA'" font-size="3.3408px">!RST</text>
	<text id="text42" transform="matrix(1 0 0 1 6.3889 35.5165)" fill="#FFFFFF" font-family="'OCRA'" font-size="3.3408px">SWDIO</text>
	<text id="text54" transform="matrix(1 0 0 1 47.1004 6.7166)" fill="#FFFFFF" font-family="'OCRA'" font-size="3.3408px">NC</text>
	<text id="text60" transform="matrix(1 0 0 1 44.6844 13.9168)" fill="#FFFFFF" font-family="'OCRA'" font-size="3.3408px">---</text>
	<text id="text66" transform="matrix(1 0 0 1 44.6844 21.117)" fill="#FFFFFF" font-family="'OCRA'" font-size="3.3408px">GND</text>
	<text id="text72" transform="matrix(1 0 0 1 44.6843 28.3163)" fill="#FFFFFF" font-family="'OCRA'" font-size="3.3408px">GND</text>
	<text id="text48" transform="matrix(1 0 0 1 39.8533 35.5165)" fill="#FFFFFF" font-family="'OCRA'" font-size="3.3408px">VTref</text>
	<g id="g118">
		
			<line id="line122" fill="none" stroke="#FFFFFF" stroke-width="0.36" stroke-linecap="round" x1="36.5" y1="10.4" x2="36.5" y2="1"/>
		<line id="line124" fill="none" stroke="#FFFFFF" stroke-width="0.36" stroke-linecap="round" x1="36.5" y1="1" x2="21.1" y2="1"/>
		
			<line id="line126" fill="none" stroke="#FFFFFF" stroke-width="0.36" stroke-linecap="round" x1="21.1" y1="1" x2="21.1" y2="10.4"/>
		
			<line id="line128" fill="none" stroke="#FFFFFF" stroke-width="0.36" stroke-linecap="round" x1="36.5" y1="28.5" x2="36.5" y2="37.9"/>
		
			<line id="line130" fill="none" stroke="#FFFFFF" stroke-width="0.36" stroke-linecap="round" x1="36.5" y1="37.9" x2="21.1" y2="37.9"/>
		
			<line id="line132" fill="none" stroke="#FFFFFF" stroke-width="0.36" stroke-linecap="round" x1="21.1" y1="37.9" x2="21.1" y2="28.5"/>
		<g id="g134">
			<title  id="title136">polygon</title>
			
				<path id="path138" inkscape:connector-curvature="0" fill="none" stroke="#FFFFFF" stroke-width="0.36" stroke-linecap="round" d="
				M17.5,1l2.8,1.4l-2.8,1.4V1 M17.6,1.1v2.7V1.1 M18,1.3v2.3V1.3 M18.4,1.5v1.9V1.5 M18.7,1.7v1.6V1.7 M19.1,1.8V3V1.8 M19.4,2v0.9
				V2 M19.8,2.2v0.5V2.2"/>
		</g>
	</g>
</g>
<g id="g75" transform="matrix(0,1,-1,0,31.3455,-6.86551)">
	<g id="g156">
		
			<rect id="rect71" x="15.4" y="7.6" transform="matrix(2.535182e-06 1 -1 2.535182e-06 27.7936 -10.3127)" fill="#9A916C" width="7.4" height="2.2"/>
	</g>
</g>
<g id="g80" transform="matrix(0,1,-1,0,43.5345,-19.0545)">
	<g id="g159">
		
			<rect id="rect77" x="27.6" y="7.5" transform="matrix(2.535182e-06 1 -1 2.535182e-06 39.9376 -22.6567)" fill="#9A916C" width="7.4" height="2.2"/>
	</g>
</g>
<g id="g85" transform="matrix(0,1,-1,0,34.9455,-3.26551)">
	<g id="g162">
		
			<rect id="rect82" x="15.4" y="11.2" transform="matrix(2.535182e-06 1 -1 2.535182e-06 31.392 -6.7119)" fill="#9A916C" width="7.4" height="2.2"/>
	</g>
</g>
<g id="g91" transform="matrix(0,1,-1,0,47.1345,-15.4545)">
	<g id="g165">
		
			<rect id="rect87" x="27.6" y="11.1" transform="matrix(2.535182e-06 1 -1 2.535182e-06 43.5376 -19.0559)" fill="#9A916C" width="7.4" height="2.2"/>
	</g>
</g>
<g id="g96" transform="matrix(0,1,-1,0,38.5455,0.334488)">
	<g id="g168">
		
			<rect id="rect93" x="15.4" y="14.8" transform="matrix(2.535182e-06 1 -1 2.535182e-06 34.9976 -3.1111)" fill="#9A916C" width="7.4" height="2.2"/>
	</g>
</g>
<g id="g101" transform="matrix(0,1,-1,0,50.7345,-11.8545)">
	<g id="g171">
		
			<rect id="rect98" x="27.6" y="14.7" transform="matrix(2.535182e-06 1 -1 2.535182e-06 47.1376 -15.4551)" fill="#9A916C" width="7.4" height="2.2"/>
	</g>
</g>
<g id="g107" transform="matrix(0,1,-1,0,42.1455,3.93449)">
	<g id="g174">
		
			<rect id="rect103" x="15.4" y="18.4" transform="matrix(2.535182e-06 1 -1 2.535182e-06 38.5931 0.4897)" fill="#9A916C" width="7.4" height="2.2"/>
	</g>
</g>
<g id="g112" transform="matrix(0,1,-1,0,54.3345,-8.25451)">
	<g id="g177">
		
			<rect id="rect109" x="27.6" y="18.3" transform="matrix(2.535182e-06 1 -1 2.535182e-06 50.7331 -11.8543)" fill="#9A916C" width="7.4" height="2.2"/>
	</g>
</g>
<g id="g117" transform="matrix(0,1,-1,0,45.7455,7.53451)">
	<g id="g180">
		
			<rect id="rect114" x="15.4" y="22" transform="matrix(2.535182e-06 1 -1 2.535182e-06 42.1931 4.0865)" fill="#9A916C" width="7.4" height="2.2"/>
	</g>
</g>
<g id="g122" transform="matrix(0,1,-1,0,57.9345,-4.65449)">
	<g id="g183">
		
			<rect id="rect119" x="27.6" y="21.9" transform="matrix(2.535182e-06 1 -1 2.535182e-06 54.3331 -8.2575)" fill="#9A916C" width="7.4" height="2.2"/>
	</g>
</g>
<g id="g418">
	<g id="connector9pin" transform="matrix(0.09599999,0,0,0.09599999,2.3042742,7.5438379)" inkscape:label="connector0pin">
		<rect id="connector31pin-2" x="1.5" y="-38" fill="#8D8C8C" width="23.9" height="23.9"/>
		<rect id="rect294-1" x="7.4" y="-32.2" fill="#8C8663" width="12.3" height="12.3"/>
		<polygon id="polygon296-1" fill="#B8AF82" points="7.4,-32.8 1.5,-38 1.5,-14.1 7.4,-19.9 		"/>
		<polygon id="polygon298-0" fill="#80795B" points="1.5,-38 25.5,-38 19.7,-32.2 7.4,-32.2 		"/>
		<polygon id="polygon300-2" fill="#5E5B43" points="25.5,-38 25.5,-14.1 19.7,-19.9 19.7,-32.2 		"/>
		<polygon id="polygon302-2" fill="#9A916C" points="19.7,-19.9 25.5,-14.1 1.5,-14.1 7.4,-19.9 		"/>
	</g>
	<g id="connector7pin" transform="matrix(0.09599999,0,0,0.09599999,11.904273,7.5438379)" inkscape:label="connector2pin">
		<rect id="connector30pin-5" x="-98.5" y="37" fill="#8D8C8C" width="23.9" height="23.9"/>
		<rect id="rect320-3" x="-92.6" y="42.8" fill="#8C8663" width="12.3" height="12.3"/>
		<polygon id="polygon322-3" fill="#B8AF82" points="-98.5,60.9 -92.6,55.1 -92.6,42.3 -98.5,37 		"/>
		<polygon id="polygon324-0" fill="#80795B" points="-80.3,42.8 -92.6,42.8 -98.5,37 -74.5,37 		"/>
		<polygon id="polygon326-1" fill="#5E5B43" points="-80.3,55.1 -80.3,42.8 -74.5,37 -74.5,60.9 		"/>
		<polygon id="polygon328-9" fill="#9A916C" points="-98.5,60.9 -92.6,55.1 -80.3,55.1 -74.5,60.9 		"/>
	</g>
	<g id="connector5pin" transform="matrix(0.09599999,0,0,0.09599999,21.504273,7.5438379)" inkscape:label="connector4pin">
		<rect id="connector29pin-7" x="-198.5" y="112" fill="#8D8C8C" width="23.9" height="23.9"/>
		<rect id="rect346-1" x="-192.6" y="117.8" fill="#8C8663" width="12.3" height="12.3"/>
		<polygon id="polygon348-9" fill="#B8AF82" points="-192.6,117.2 -198.5,112 -198.5,135.9 -192.6,130.1 		"/>
		<polygon id="polygon350-6" fill="#80795B" points="-198.5,112 -174.5,112 -180.3,117.8 -192.6,117.8 		"/>
		<polygon id="polygon352-6" fill="#5E5B43" points="-174.5,112 -174.5,135.9 -180.3,130.1 -180.3,117.8 		"/>
		<polygon id="polygon354-0" fill="#9A916C" points="-180.3,130.1 -174.5,135.9 -198.5,135.9 -192.6,130.1 		"/>
	</g>
	<g id="connector3pin" transform="matrix(0.09599999,0,0,0.09599999,11.904273,7.5438379)" inkscape:label="connector2pin">
		<rect id="connector30pin-5_1_" x="-98.5" y="187" fill="#8D8C8C" width="23.9" height="23.9"/>
		<rect id="rect320-3_1_" x="-92.6" y="192.8" fill="#8C8663" width="12.3" height="12.3"/>
		<polygon id="polygon322-3_1_" fill="#B8AF82" points="-98.5,211 -92.6,205.1 -92.6,192.3 -98.5,187 		"/>
		<polygon id="polygon324-0_1_" fill="#80795B" points="-80.3,192.9 -92.6,192.9 -98.5,187 -74.5,187 		"/>
		<polygon id="polygon326-1_1_" fill="#5E5B43" points="-80.3,205.1 -80.3,192.9 -74.5,187 -74.5,211 		"/>
		<polygon id="polygon328-9_1_" fill="#9A916C" points="-98.5,211 -92.6,205.1 -80.3,205.1 -74.5,211 		"/>
	</g>
	<g id="connector1pin" transform="matrix(0.09599999,0,0,0.09599999,21.504273,7.5438379)" inkscape:label="connector4pin">
		<rect id="connector29pin-7_1_" x="-198.5" y="262" fill="#8D8C8C" width="23.9" height="23.9"/>
		<rect id="rect346-1_1_" x="-192.6" y="267.8" fill="#8C8663" width="12.3" height="12.3"/>
		<polygon id="polygon348-9_1_" fill="#B8AF82" points="-192.6,267.3 -198.5,262 -198.5,285.9 -192.6,280.1 		"/>
		<polygon id="polygon350-6_1_" fill="#80795B" points="-198.5,262 -174.5,262 -180.3,267.8 -192.6,267.8 		"/>
		<polygon id="polygon352-6_1_" fill="#5E5B43" points="-174.5,262 -174.5,285.9 -180.3,280.1 -180.3,267.8 		"/>
		<polygon id="polygon354-0_1_" fill="#9A916C" points="-180.3,280.1 -174.5,285.9 -198.5,285.9 -192.6,280.1 		"/>
	</g>
</g>
<g id="g455">
	<g id="connector8pin" transform="matrix(0.09599999,0,0,0.09599999,2.3042742,7.5438379)" inkscape:label="connector0pin">
		<rect id="connector31pin-2_1_" x="526.5" y="-38" fill="#8D8C8C" width="23.9" height="23.9"/>
		<rect id="rect294-1_1_" x="532.4" y="-32.2" fill="#8C8663" width="12.3" height="12.3"/>
		<polygon id="polygon296-1_1_" fill="#B8AF82" points="532.4,-32.8 526.5,-38 526.5,-14.1 532.4,-19.9 		"/>
		<polygon id="polygon298-0_1_" fill="#80795B" points="526.5,-38 550.5,-38 544.7,-32.2 532.4,-32.2 		"/>
		<polygon id="polygon300-2_1_" fill="#5E5B43" points="550.5,-38 550.5,-14.1 544.7,-19.9 544.7,-32.2 		"/>
		<polygon id="polygon302-2_1_" fill="#9A916C" points="544.7,-19.9 550.5,-14.1 526.5,-14.1 532.4,-19.9 		"/>
	</g>
	<g id="connector6pin" transform="matrix(0.09599999,0,0,0.09599999,11.904273,7.5438379)" inkscape:label="connector2pin">
		<rect id="connector30pin-5_3_" x="426.5" y="37" fill="#8D8C8C" width="23.9" height="23.9"/>
		<rect id="rect320-3_3_" x="432.4" y="42.8" fill="#8C8663" width="12.3" height="12.3"/>
		<polygon id="polygon322-3_3_" fill="#B8AF82" points="426.5,61 432.4,55.1 432.4,42.3 426.5,37 		"/>
		<polygon id="polygon324-0_3_" fill="#80795B" points="444.7,42.8 432.4,42.8 426.5,37 450.5,37 		"/>
		<polygon id="polygon326-1_3_" fill="#5E5B43" points="444.7,55.1 444.7,42.8 450.5,37 450.5,61 		"/>
		<polygon id="polygon328-9_3_" fill="#9A916C" points="426.5,61 432.4,55.1 444.7,55.1 450.5,61 		"/>
	</g>
	<g id="connector4pin" transform="matrix(0.09599999,0,0,0.09599999,21.504273,7.5438379)" inkscape:label="connector4pin">
		<rect id="connector29pin-7_3_" x="326.5" y="112" fill="#8D8C8C" width="23.9" height="23.9"/>
		<rect id="rect346-1_3_" x="332.4" y="117.8" fill="#8C8663" width="12.3" height="12.3"/>
		<polygon id="polygon348-9_3_" fill="#B8AF82" points="332.4,117.2 326.5,112 326.5,135.9 332.4,130.1 		"/>
		<polygon id="polygon350-6_3_" fill="#80795B" points="326.5,112 350.5,112 344.7,117.8 332.4,117.8 		"/>
		<polygon id="polygon352-6_3_" fill="#5E5B43" points="350.5,112 350.5,135.9 344.7,130.1 344.7,117.8 		"/>
		<polygon id="polygon354-0_3_" fill="#9A916C" points="344.7,130.1 350.5,135.9 326.5,135.9 332.4,130.1 		"/>
	</g>
	<g id="connector2pin" transform="matrix(0.09599999,0,0,0.09599999,11.904273,7.5438379)" inkscape:label="connector2pin">
		<rect id="connector30pin-5_2_" x="426.5" y="187" fill="#8D8C8C" width="23.9" height="23.9"/>
		<rect id="rect320-3_2_" x="432.4" y="192.8" fill="#8C8663" width="12.3" height="12.3"/>
		<polygon id="polygon322-3_2_" fill="#B8AF82" points="426.5,211 432.4,205.1 432.4,192.3 426.5,187 		"/>
		<polygon id="polygon324-0_2_" fill="#80795B" points="444.7,192.9 432.4,192.9 426.5,187 450.5,187 		"/>
		<polygon id="polygon326-1_2_" fill="#5E5B43" points="444.7,205.1 444.7,192.9 450.5,187 450.5,211 		"/>
		<polygon id="polygon328-9_2_" fill="#9A916C" points="426.5,211 432.4,205.1 444.7,205.1 450.5,211 		"/>
	</g>
	<g id="connector0pin" transform="matrix(0.09599999,0,0,0.09599999,21.504273,7.5438379)" inkscape:label="connector4pin">
		<rect id="connector29pin-7_2_" x="326.5" y="262" fill="#8D8C8C" width="23.9" height="23.9"/>
		<rect id="rect346-1_2_" x="332.4" y="267.8" fill="#8C8663" width="12.3" height="12.3"/>
		<polygon id="polygon348-9_2_" fill="#B8AF82" points="332.4,267.3 326.5,262 326.5,285.9 332.4,280.1 		"/>
		<polygon id="polygon350-6_2_" fill="#80795B" points="326.5,262 350.5,262 344.7,267.8 332.4,267.8 		"/>
		<polygon id="polygon352-6_2_" fill="#5E5B43" points="350.5,262 350.5,285.9 344.7,280.1 344.7,267.8 		"/>
		<polygon id="polygon354-0_2_" fill="#9A916C" points="344.7,280.1 350.5,285.9 326.5,285.9 332.4,280.1 		"/>
	</g>
</g>
</svg>
