<?xml version="1.0" encoding="utf-8"?>
<!-- Generator: Adobe Illustrator 22.0.1, SVG Export Plug-In . SVG Version: 6.00 Build 0)  -->
<svg version="1.2" baseProfile="tiny" id="pcb" xmlns="http://www.w3.org/2000/svg" xmlns:xlink="http://www.w3.org/1999/xlink"
	 x="0px" y="0px" width="0.2722222in" height="0.5166666in" viewBox="0 0 19.6 37.2" xml:space="preserve">
<g id="copper1">
	<rect id="connector9pin" stroke-width="0" y="10.3" fill="#F7BD10" width="7.4" height="2.2"/>
	<rect id="connector8pin" stroke-width="0" x="12.2" y="10.3" fill="#F7BD10" width="7.4" height="2.2"/>
	<rect id="connector7pin" stroke-width="0" y="13.9" fill="#F7BD10" width="7.4" height="2.2"/>
	<rect id="connector6pin" stroke-width="0" x="12.2" y="13.9" fill="#F7BD10" width="7.4" height="2.2"/>
	<rect id="connector5pin" stroke-width="0" y="17.5" fill="#F7BD10" width="7.4" height="2.2"/>
	<rect id="connector4pin" stroke-width="0" x="12.2" y="17.5" fill="#F7BD10" width="7.4" height="2.2"/>
	<rect id="connector3pin" stroke-width="0" y="21.1" fill="#F7BD10" width="7.4" height="2.2"/>
	<rect id="connector2pin" stroke-width="0" x="12.2" y="21.1" fill="#F7BD10" width="7.4" height="2.2"/>
	<rect id="connector1pin" stroke-width="0" y="24.7" fill="#F7BD10" width="7.4" height="2.2"/>
	<rect id="connector0pin" stroke-width="0" x="12.2" y="24.7" fill="#F7BD10" width="7.4" height="2.2"/>
</g>
<g id="silkscreen">
	<g>
		
			<line id="line816" fill="none" stroke="#FFFFFF" stroke-width="0.36" stroke-linecap="round" x1="2.1" y1="0.2" x2="2.1" y2="9.5"/>
		
			<line id="line818" fill="none" stroke="#FFFFFF" stroke-width="0.36" stroke-linecap="round" x1="17.4" y1="0.2" x2="2.1" y2="0.2"/>
		
			<line id="line820" fill="none" stroke="#FFFFFF" stroke-width="0.36" stroke-linecap="round" x1="17.4" y1="9.5" x2="17.4" y2="0.2"/>
	</g>
	<g>
		
			<line id="line822" fill="none" stroke="#FFFFFF" stroke-width="0.36" stroke-linecap="round" x1="2.1" y1="37" x2="2.1" y2="27.7"/>
		
			<line id="line824" fill="none" stroke="#FFFFFF" stroke-width="0.36" stroke-linecap="round" x1="17.4" y1="37" x2="2.1" y2="37"/>
		
			<line id="line826" fill="none" stroke="#FFFFFF" stroke-width="0.36" stroke-linecap="round" x1="17.4" y1="27.7" x2="17.4" y2="37"/>
	</g>
	<circle fill="#FFFFFF" stroke="#FFFFFF" stroke-miterlimit="10" cx="9.8" cy="13.2" r="1.4"/>
	<circle fill="#FFFFFF" stroke="#FFFFFF" stroke-miterlimit="10" cx="9.8" cy="24" r="1.4"/>
	<circle fill="#FFFFFF" stroke="#FFFFFF" stroke-miterlimit="10" cx="14.7" cy="34.3" r="0.9"/>
</g>
</svg>
