<?xml version="1.0" encoding="utf-8"?>
<!-- Generator: Adobe Illustrator 22.0.1, SVG Export Plug-In . SVG Version: 6.00 Build 0)  -->
<svg version="1.2" baseProfile="tiny" id="schematic" xmlns:svg="http://www.w3.org/2000/svg"
	 xmlns="http://www.w3.org/2000/svg" xmlns:xlink="http://www.w3.org/1999/xlink" x="0px" y="0px" width="1.0972222in" height="2.7361111in"
	 viewBox="0 0 79 197" xml:space="preserve">
<rect x="14.9" y="14.6" fill="#FFFFFF" stroke="#000000" stroke-width="0.3175" stroke-linecap="round" width="49.5" height="167.8"/>
<line id="connector29pin" fill="none" stroke="#787878" stroke-width="0.2469" stroke-linecap="round" x1="64.4" y1="31.4" x2="78.8" y2="31.4"/>
<text transform="matrix(1 0 0 1 54.3115 32.1162)" fill="#8C8C8C" font-family="'DroidSans'" font-size="3.5px">P0.14</text>
<line id="connector30pin" fill="none" stroke="#787878" stroke-width="0.2469" stroke-linecap="round" x1="64.4" y1="38.6" x2="78.8" y2="38.6"/>
<text transform="matrix(1 0 0 1 54.3115 39.3164)" fill="#8C8C8C" font-family="'DroidSans'" font-size="3.5px">P0.15</text>
<line id="connector31pin" fill="none" stroke="#787878" stroke-width="0.2469" stroke-linecap="round" x1="64.4" y1="45.8" x2="78.8" y2="45.8"/>
<text transform="matrix(1 0 0 1 54.3115 46.5166)" fill="#8C8C8C" font-family="'DroidSans'" font-size="3.5px">P0.16</text>
<line id="connector32pin" fill="none" stroke="#787878" stroke-width="0.2469" stroke-linecap="round" x1="64.4" y1="53" x2="78.8" y2="53"/>
<text transform="matrix(1 0 0 1 54.3115 53.7168)" fill="#8C8C8C" font-family="'DroidSans'" font-size="3.5px">P0.17</text>
<line id="connector33pin" fill="none" stroke="#787878" stroke-width="0.2469" stroke-linecap="round" x1="64.4" y1="60.2" x2="78.8" y2="60.2"/>
<text transform="matrix(1 0 0 1 54.3115 60.917)" fill="#8C8C8C" font-family="'DroidSans'" font-size="3.5px">P0.18</text>
<line id="connector34pin" fill="none" stroke="#787878" stroke-width="0.2469" stroke-linecap="round" x1="64.4" y1="67.4" x2="78.8" y2="67.4"/>
<text transform="matrix(1 0 0 1 54.3115 68.1162)" fill="#8C8C8C" font-family="'DroidSans'" font-size="3.5px">P0.19</text>
<line id="connector35pin" fill="none" stroke="#787878" stroke-width="0.2469" stroke-linecap="round" x1="64.4" y1="74.6" x2="78.8" y2="74.6"/>
<text transform="matrix(1 0 0 1 54.3115 75.3164)" fill="#8C8C8C" font-family="'DroidSans'" font-size="3.5px">P0.20</text>
<line id="connector36pin" fill="none" stroke="#787878" stroke-width="0.2469" stroke-linecap="round" x1="64.4" y1="81.8" x2="78.8" y2="81.8"/>
<text transform="matrix(1 0 0 1 54.3115 82.5166)" fill="#8C8C8C" font-family="'DroidSans'" font-size="3.5px">P0.21</text>
<line id="connector39pin" fill="none" stroke="#787878" stroke-width="0.2469" stroke-linecap="round" x1="64.4" y1="89" x2="78.8" y2="89"/>
<text transform="matrix(1 0 0 1 54.3115 89.7168)" fill="#8C8C8C" font-family="'DroidSans'" font-size="3.5px">P0.22</text>
<line id="connector40pin" fill="none" stroke="#787878" stroke-width="0.2469" stroke-linecap="round" x1="64.4" y1="96.2" x2="78.8" y2="96.2"/>
<text transform="matrix(1 0 0 1 54.3115 96.917)" fill="#8C8C8C" font-family="'DroidSans'" font-size="3.5px">P0.23</text>
<line id="connector41pin" fill="none" stroke="#787878" stroke-width="0.2469" stroke-linecap="round" x1="64.4" y1="103.4" x2="78.8" y2="103.4"/>
<text transform="matrix(1 0 0 1 54.3115 104.1162)" fill="#8C8C8C" font-family="'DroidSans'" font-size="3.5px">P0.24</text>
<line id="connector5pin" fill="none" stroke="#787878" stroke-width="0.2469" stroke-linecap="round" x1="64.4" y1="110.6" x2="78.8" y2="110.6"/>
<text transform="matrix(1 0 0 1 54.3115 111.3164)" fill="#8C8C8C" font-family="'DroidSans'" font-size="3.5px">P0.25</text>
<line id="connector6pin" fill="none" stroke="#787878" stroke-width="0.2469" stroke-linecap="round" x1="64.4" y1="117.8" x2="78.8" y2="117.8"/>
<text transform="matrix(1 0 0 1 54.3115 118.5166)" fill="#8C8C8C" font-family="'DroidSans'" font-size="3.5px">P0.26</text>
<line id="connector7pin" fill="none" stroke="#787878" stroke-width="0.2469" stroke-linecap="round" x1="64.4" y1="125" x2="78.8" y2="125"/>
<text transform="matrix(1 0 0 1 54.3115 125.7168)" fill="#8C8C8C" font-family="'DroidSans'" font-size="3.5px">P0.27</text>
<line id="connector8pin" fill="none" stroke="#787878" stroke-width="0.2469" stroke-linecap="round" x1="64.4" y1="132.2" x2="78.8" y2="132.2"/>
<text transform="matrix(1 0 0 1 54.3115 132.917)" fill="#8C8C8C" font-family="'DroidSans'" font-size="3.5px">P0.28</text>
<line id="connector9pin" fill="none" stroke="#787878" stroke-width="0.2469" stroke-linecap="round" x1="64.4" y1="139.4" x2="78.8" y2="139.4"/>
<text transform="matrix(1 0 0 1 54.3115 140.1162)" fill="#8C8C8C" font-family="'DroidSans'" font-size="3.5px">P0.29</text>
<line id="connector10pin" fill="none" stroke="#787878" stroke-width="0.2469" stroke-linecap="round" x1="64.4" y1="146.6" x2="78.8" y2="146.6"/>
<text transform="matrix(1 0 0 1 54.3115 147.3164)" fill="#8C8C8C" font-family="'DroidSans'" font-size="3.5px">P0.30</text>
<line id="connector11pin" fill="none" stroke="#787878" stroke-width="0.2469" stroke-linecap="round" x1="64.4" y1="153.8" x2="78.8" y2="153.8"/>
<text transform="matrix(1 0 0 1 54.3115 154.5166)" fill="#8C8C8C" font-family="'DroidSans'" font-size="3.5px">P0.31</text>
<line id="connector37pin" fill="none" stroke="#787878" stroke-width="0.2469" stroke-linecap="round" x1="64.4" y1="161" x2="78.8" y2="161"/>
<text transform="matrix(1 0 0 1 52.3164 161.7168)" fill="#8C8C8C" font-family="'DroidSans'" font-size="3.5px">S</text>
<text transform="matrix(1 0 0 1 54.1328 161.7168)" fill="#8C8C8C" font-family="'DroidSans'" font-size="3.5px">W</text>
<text transform="matrix(1 0 0 1 57.1924 161.7168)" fill="#8C8C8C" font-family="'DroidSans'" font-size="3.5px">C</text>
<text transform="matrix(1 0 0 1 59.3027 161.7168)" fill="#8C8C8C" font-family="'DroidSans'" font-size="3.5px">L</text>
<text transform="matrix(1 0 0 1 61.022 161.7168)" fill="#8C8C8C" font-family="'DroidSans'" font-size="3.5px">K</text>
<line id="connector38pin" fill="none" stroke="#787878" stroke-width="0.2469" stroke-linecap="round" x1="64.4" y1="168.2" x2="78.8" y2="168.2"/>
<text transform="matrix(1 0 0 1 52.0303 168.917)" fill="#8C8C8C" font-family="'DroidSans'" font-size="3.5px">S</text>
<text transform="matrix(1 0 0 1 53.8467 168.917)" fill="#8C8C8C" font-family="'DroidSans'" font-size="3.5px">W</text>
<text transform="matrix(1 0 0 1 56.9404 168.917)" fill="#8C8C8C" font-family="'DroidSans'" font-size="3.5px">D</text>
<text transform="matrix(1 0 0 1 59.3003 168.917)" fill="#8C8C8C" font-family="'DroidSans'" font-size="3.5px">I</text>
<text transform="matrix(1 0 0 1 60.4521 168.917)" fill="#8C8C8C" font-family="'DroidSans'" font-size="3.5px">O</text>
<line id="connector3pin" fill="none" stroke="#787878" stroke-width="0.2469" stroke-linecap="round" x1="0.3" y1="31.4" x2="14.7" y2="31.4"/>
<text transform="matrix(1 0 0 1 16.1504 32.1162)" fill="#8C8C8C" font-family="'DroidSans'" font-size="3.5px">DEC2</text>
<line id="connector4pin" fill="none" stroke="#787878" stroke-width="0.2469" stroke-linecap="round" x1="0.3" y1="38.6" x2="14.7" y2="38.6"/>
<text transform="matrix(1 0 0 1 16.1504 39.3164)" fill="#8C8C8C" font-family="'DroidSans'" font-size="3.5px">DEC3</text>
<line id="connector12pin" fill="none" stroke="#787878" stroke-width="0.2469" stroke-linecap="round" x1="0.3" y1="45.8" x2="14.7" y2="45.8"/>
<text transform="matrix(1 0 0 1 16.1504 46.5166)" fill="#8C8C8C" font-family="'DroidSans'" font-size="3.5px">DEC4</text>
<line id="connector14pin" fill="none" stroke="#787878" stroke-width="0.2469" stroke-linecap="round" x1="0.3" y1="53" x2="14.7" y2="53"/>
<text transform="matrix(1 0 0 1 16.1504 53.7168)" fill="#8C8C8C" font-family="'DroidSans'" font-size="3.5px">DEC5</text>
<line id="connector17pin" fill="none" stroke="#787878" stroke-width="0.2469" stroke-linecap="round" x1="0.3" y1="60.2" x2="14.7" y2="60.2"/>
<text transform="matrix(1 0 0 1 16.1504 60.917)" fill="#8C8C8C" font-family="'DroidSans'" font-size="3.5px">P0.02</text>
<line id="connector18pin" fill="none" stroke="#787878" stroke-width="0.2469" stroke-linecap="round" x1="0.3" y1="67.4" x2="14.7" y2="67.4"/>
<text transform="matrix(1 0 0 1 16.1504 68.1162)" fill="#8C8C8C" font-family="'DroidSans'" font-size="3.5px">P0.03</text>
<line id="connector19pin" fill="none" stroke="#787878" stroke-width="0.2469" stroke-linecap="round" x1="0.3" y1="74.6" x2="14.7" y2="74.6"/>
<text transform="matrix(1 0 0 1 16.1504 75.3164)" fill="#8C8C8C" font-family="'DroidSans'" font-size="3.5px">P0.04</text>
<line id="connector20pin" fill="none" stroke="#787878" stroke-width="0.2469" stroke-linecap="round" x1="0.3" y1="81.8" x2="14.7" y2="81.8"/>
<text transform="matrix(1 0 0 1 16.1504 82.5166)" fill="#8C8C8C" font-family="'DroidSans'" font-size="3.5px">P0.05</text>
<line id="connector21pin" fill="none" stroke="#787878" stroke-width="0.2469" stroke-linecap="round" x1="0.3" y1="89" x2="14.7" y2="89"/>
<text transform="matrix(1 0 0 1 16.1504 89.7168)" fill="#8C8C8C" font-family="'DroidSans'" font-size="3.5px">P0.06</text>
<line id="connector22pin" fill="none" stroke="#787878" stroke-width="0.2469" stroke-linecap="round" x1="0.3" y1="96.2" x2="14.7" y2="96.2"/>
<text transform="matrix(1 0 0 1 16.1504 96.917)" fill="#8C8C8C" font-family="'DroidSans'" font-size="3.5px">P0.07</text>
<line id="connector23pin" fill="none" stroke="#787878" stroke-width="0.2469" stroke-linecap="round" x1="0.3" y1="103.4" x2="14.7" y2="103.4"/>
<text transform="matrix(1 0 0 1 16.1504 104.1162)" fill="#8C8C8C" font-family="'DroidSans'" font-size="3.5px">P0.08</text>
<line id="connector24pin" fill="none" stroke="#787878" stroke-width="0.2469" stroke-linecap="round" x1="0.3" y1="110.6" x2="14.7" y2="110.6"/>
<text transform="matrix(1 0 0 1 16.1504 111.3164)" fill="#8C8C8C" font-family="'DroidSans'" font-size="3.5px">P0.09</text>
<line id="connector25pin" fill="none" stroke="#787878" stroke-width="0.2469" stroke-linecap="round" x1="0.3" y1="117.8" x2="14.7" y2="117.8"/>
<text transform="matrix(1 0 0 1 16.1504 118.5166)" fill="#8C8C8C" font-family="'DroidSans'" font-size="3.5px">P0.10</text>
<line id="connector26pin" fill="none" stroke="#787878" stroke-width="0.2469" stroke-linecap="round" x1="0.3" y1="125" x2="14.7" y2="125"/>
<text transform="matrix(1 0 0 1 16.1504 125.7168)" fill="#8C8C8C" font-family="'DroidSans'" font-size="3.5px">P0.11</text>
<line id="connector27pin" fill="none" stroke="#787878" stroke-width="0.2469" stroke-linecap="round" x1="0.3" y1="132.2" x2="14.7" y2="132.2"/>
<text transform="matrix(1 0 0 1 16.1504 132.917)" fill="#8C8C8C" font-family="'DroidSans'" font-size="3.5px">P0.12</text>
<line id="connector28pin" fill="none" stroke="#787878" stroke-width="0.2469" stroke-linecap="round" x1="0.3" y1="139.4" x2="14.7" y2="139.4"/>
<text transform="matrix(1 0 0 1 16.1504 140.1162)" fill="#8C8C8C" font-family="'DroidSans'" font-size="3.5px">P0.13</text>
<line id="connector16pin" fill="none" stroke="#787878" stroke-width="0.2469" stroke-linecap="round" x1="36.1" y1="0.1" x2="36.1" y2="14.5"/>
<text transform="matrix(-1.836970e-16 -1 1 -1.836970e-16 37.0887 21.9958)" fill="#8C8C8C" font-family="'DroidSans'" font-size="3.5px">V</text>
<text transform="matrix(-1.836970e-16 -1 1 -1.836970e-16 37.0887 20.0778)" fill="#8C8C8C" font-family="'DroidSans'" font-size="3.5px">C</text>
<text transform="matrix(-1.836970e-16 -1 1 -1.836970e-16 37.0887 18.0378)" fill="#8C8C8C" font-family="'DroidSans'" font-size="3.5px">C</text>
<text id="label" transform="matrix(1 0 0 1 26.3539 92.5332)" font-family="'DroidSans'" font-size="4.25px">E73-2G4M04S</text>
<line id="connector1pin" fill="none" stroke="#787878" stroke-width="0.2469" stroke-linecap="round" x1="36.1" y1="196.7" x2="36.1" y2="196.9"/>
<line id="connector2pin" fill="none" stroke="#787878" stroke-width="0.2469" stroke-linecap="round" x1="36.1" y1="196.7" x2="36.1" y2="196.9"/>
<line id="connector15pin" fill="none" stroke="#787878" stroke-width="0.2469" stroke-linecap="round" x1="36.1" y1="196.7" x2="36.1" y2="196.9"/>
<line id="connector42pin" fill="none" stroke="#787878" stroke-width="0.2469" stroke-linecap="round" x1="36.1" y1="196.7" x2="36.1" y2="196.9"/>
<line id="connector43pin" fill="none" stroke="#787878" stroke-width="0.2469" stroke-linecap="round" x1="36.1" y1="196.7" x2="36.1" y2="196.9"/>
<line id="connector0pin" fill="none" stroke="#787878" stroke-width="0.2469" stroke-linecap="round" x1="36.1" y1="182.5" x2="36.1" y2="196.9"/>
<text transform="matrix(-1.836970e-16 -1 1 -1.836970e-16 37.0891 181.0925)" fill="#8C8C8C" font-family="'DroidSans'" font-size="3.5px">GND</text>
<line id="connector13pin" fill="none" stroke="#787878" stroke-width="0.2469" stroke-linecap="round" x1="43.3" y1="0.1" x2="43.3" y2="14.5"/>
<text transform="matrix(-1.836970e-16 -1 1 -1.836970e-16 44.2876 22.28)" fill="#8C8C8C" font-family="'DroidSans'" font-size="3.5px">D</text>
<text transform="matrix(-1.836970e-16 -1 1 -1.836970e-16 44.2876 20.0769)" fill="#8C8C8C" font-family="'DroidSans'" font-size="3.5px">C</text>
<text transform="matrix(-1.836970e-16 -1 1 -1.836970e-16 44.2876 18.0368)" fill="#8C8C8C" font-family="'DroidSans'" font-size="3.5px">C</text>
</svg>
