<?xml version="1.0" encoding="utf-8"?>
<!-- Generator: Adobe Illustrator 22.0.1, SVG Export Plug-In . SVG Version: 6.00 Build 0)  -->
<svg version="1.2" baseProfile="tiny" id="breadboard"
	 xmlns="http://www.w3.org/2000/svg" xmlns:xlink="http://www.w3.org/1999/xlink" x="0px" y="0px" width="1.1305555in" height="0.6888888in"
	 viewBox="0 0 81.4 49.6" xml:space="preserve">
<rect y="0" fill="#2C6F5A" width="81.4" height="49.6"/>
<g>
	<path fill="#44926A" d="M55.1,45.7C55.1,45.8,55,45.8,55.1,45.7l-2,0.1c-0.1,0-0.1-0.1-0.1-0.1V4.2c0-0.1,0.1-0.1,0.1-0.1H55
		c0.1,0,0.1,0.1,0.1,0.1V45.7L55.1,45.7z"/>
</g>
<g>
	<path fill="#44926A" d="M65.9,46.3c0,0.1-0.1,0.1-0.2,0.1H55.2c-0.1,0-0.1-0.1-0.1-0.1v-43c0-0.1,0.1-0.1,0.1-0.1h10.6
		c0.1,0,0.2,0.1,0.2,0.1L65.9,46.3L65.9,46.3z"/>
</g>
<g>
	<polygon fill="#44926A" points="58.2,23.2 58.2,3.8 3.4,3.8 3.4,46.1 52.5,46.1 52.5,23.2 	"/>
	<polygon fill="#EFEFEF" points="57.7,23.2 57.7,4.3 3.9,4.3 3.9,45.6 52.5,45.6 52.5,23.2 	"/>
</g>
<polygon fill="none" points="5.7,29.2 5.7,44.8 52.2,44.8 52.2,35.7 56.3,35.7 56.3,29.2 "/>
<text transform="matrix(1 0 0 1 5.6748 34.1077)" font-family="'DroidSans'" font-size="6.5197px">E73-2G4M04S</text>
<text transform="matrix(1 0 0 1 5.6748 38.926)" font-family="'DroidSans'" font-size="2.8346px">nRF52832 Module</text>
<text transform="matrix(1 0 0 1 5.6748 43.178)" font-family="'DroidSans'" font-size="2.8346px">No.170420000001</text>
<circle fill="#767676" cx="8.5" cy="8.8" r="1.8"/>
<circle fill="#767676" cx="47.4" cy="41.3" r="1.8"/>
<rect x="52.5" y="44.8" fill="#9A916C" width="0.5" height="1.3"/>
<rect x="52.5" y="30.7" fill="#9A916C" width="0.5" height="12.3"/>
<path stroke="#9A916C" stroke-width="0.1134" stroke-miterlimit="10" d="M53,44.6c0,0.1-0.1,0.2-0.3,0.2l0,0c-0.2,0-0.3-0.1-0.3-0.2
	v-1.3c0-0.1,0.1-0.2,0.3-0.2l0,0c0.2,0,0.3,0.1,0.3,0.2V44.6z"/>
<rect x="42.2" y="45.6" fill="#9A916C" width="10.3" height="0.5"/>
<rect x="27.1" y="45.6" fill="#9A916C" width="10.3" height="0.5"/>
<rect x="12.1" y="45.6" fill="#9A916C" width="10.3" height="0.5"/>
<rect x="3.4" y="45.6" fill="#9A916C" width="3.5" height="0.5"/>
<rect x="3.4" y="27.4" fill="#9A916C" width="0.5" height="11.2"/>
<rect x="3.4" y="14.5" fill="#9A916C" width="0.5" height="7.6"/>
<rect x="3.4" y="3.8" fill="#9A916C" width="0.5" height="4"/>
<rect x="42.2" y="3.8" fill="#9A916C" width="10.3" height="0.5"/>
<rect x="27.1" y="3.8" fill="#9A916C" width="10.3" height="0.5"/>
<rect x="12.1" y="3.8" fill="#9A916C" width="10.3" height="0.5"/>
<rect x="3.4" y="3.8" fill="#9A916C" width="3.5" height="0.5"/>
<circle fill="#767676" cx="52.5" cy="8.8" r="1.8"/>
<rect x="56.5" y="27" fill="#EDEDEE" width="7.4" height="7.4"/>
<circle fill="#EDEDEE" stroke="#DFCA7F" stroke-width="0.5102" stroke-miterlimit="10" cx="60.2" cy="30.7" r="2.8"/>
<circle fill="#DEC97D" cx="60.2" cy="30.7" r="0.7"/>
<rect x="59" y="26.4" fill="#99906C" width="2.4" height="0.6"/>
<rect x="63.9" y="27.2" fill="#99906C" width="0.6" height="6.9"/>
<rect x="55.9" y="27.2" fill="#99906C" width="0.6" height="6.9"/>
<rect x="59" y="34.4" fill="#99906C" width="2.4" height="0.6"/>
<path fill="#2C6F5A" d="M60.8,38.8c0,0.3-0.2,0.5-0.5,0.5s-0.5-0.2-0.5-0.5s0.2-0.5,0.5-0.5S60.8,38.5,60.8,38.8z"/>
<circle fill="#2C6F5A" cx="60.2" cy="41" r="0.5"/>
<circle fill="#2C6F5A" cx="60.2" cy="43.2" r="0.5"/>
<circle fill="#2C6F5A" cx="60.2" cy="45.4" r="0.5"/>
<circle fill="#2C6F5A" cx="60.2" cy="36.6" r="0.5"/>
<path fill="#2C6F5A" d="M64.7,38.8c0,0.3-0.2,0.5-0.5,0.5c-0.3,0-0.5-0.2-0.5-0.5s0.2-0.5,0.5-0.5C64.5,38.3,64.7,38.5,64.7,38.8z"
	/>
<circle fill="#2C6F5A" cx="64.2" cy="41" r="0.5"/>
<circle fill="#2C6F5A" cx="64.2" cy="43.2" r="0.5"/>
<circle fill="#2C6F5A" cx="64.2" cy="45.4" r="0.5"/>
<circle fill="#2C6F5A" cx="64.2" cy="36.6" r="0.5"/>
<path fill="#2C6F5A" d="M56.8,38.8c0,0.3-0.2,0.5-0.5,0.5s-0.5-0.2-0.5-0.5s0.2-0.5,0.5-0.5S56.8,38.5,56.8,38.8z"/>
<circle fill="#2C6F5A" cx="56.3" cy="41" r="0.5"/>
<circle fill="#2C6F5A" cx="56.3" cy="43.2" r="0.5"/>
<circle fill="#2C6F5A" cx="56.3" cy="45.4" r="0.5"/>
<circle fill="#2C6F5A" cx="56.3" cy="36.6" r="0.5"/>
<circle fill="#2C6F5A" cx="54.2" cy="25.1" r="0.5"/>
<circle fill="#2C6F5A" cx="56.6" cy="25.1" r="0.5"/>
<rect x="52.5" y="23.2" fill="#9A916C" width="0.5" height="2"/>
<rect x="57.7" y="20.1" fill="#9A916C" width="0.5" height="3.1"/>
<rect x="64.2" y="11.8" fill="#9A916C" width="15.1" height="1.2"/>
<rect x="71.8" y="17.1" fill="#9A916C" width="7.5" height="1.2"/>
<rect x="71.8" y="17.1" fill="#9A916C" width="1.2" height="7.5"/>
<rect x="71.8" y="23.4" fill="#9A916C" width="7.5" height="1.2"/>
<rect x="79.3" y="6.3" fill="#9A916C" width="1.2" height="12"/>
<rect x="71.8" y="29.2" fill="#9A916C" width="7.5" height="1.2"/>
<rect x="71.8" y="29.2" fill="#9A916C" width="1.2" height="7.5"/>
<rect x="71.8" y="35.5" fill="#9A916C" width="7.5" height="1.2"/>
<rect x="79.3" y="23.4" fill="#9A916C" width="1.2" height="7"/>
<rect x="79.3" y="35.5" fill="#9A916C" width="1.2" height="6.9"/>
<rect x="68.7" y="41.2" fill="#9A916C" width="11.7" height="1.2"/>
<rect x="67.6" y="40.5" fill="#9A916C" width="1.2" height="2.5"/>
<g>
	<path fill="#2C6F5A" d="M69.4,8.9c0,0.4-0.4,0.8-0.9,0.8h-5.2c-0.5,0-0.9-0.4-0.9-0.8V6c0-0.4,0.4-0.8,0.9-0.8h5.2
		c0.5,0,0.9,0.4,0.9,0.8V8.9z"/>
</g>
<rect x="63" y="6.3" fill="#9A916C" width="16.3" height="2.3"/>
<rect x="57.7" y="4.3" fill="#9A916C" width="0.5" height="5.5"/>
<rect x="55.8" y="3.8" fill="#9A916C" width="2.4" height="0.5"/>
<circle fill="#2C6F5A" cx="60.8" cy="4.3" r="0.5"/>
<circle fill="#2C6F5A" cx="64.2" cy="4.3" r="0.5"/>
<circle fill="#2C6F5A" cx="60.8" cy="7.4" r="0.5"/>
<circle fill="#2C6F5A" cx="64.2" cy="7.4" r="0.5"/>
<circle fill="#2C6F5A" cx="60.8" cy="10.4" r="0.5"/>
<path fill="#2C6F5A" d="M64.7,18.9c0,0.3-0.2,0.5-0.5,0.5c-0.3,0-0.5-0.2-0.5-0.5s0.2-0.5,0.5-0.5C64.5,18.4,64.7,18.6,64.7,18.9z"
	/>
<circle fill="#2C6F5A" cx="64.2" cy="21.9" r="0.5"/>
<circle fill="#2C6F5A" cx="64.2" cy="25" r="0.5"/>
<circle fill="#2C6F5A" cx="64.2" cy="15.9" r="0.5"/>
<rect x="61.7" y="14.4" fill="#2C6F5A" width="1" height="12.6"/>
<rect x="59.9" y="10.8" fill="#2C6F5A" width="6.2" height="1"/>
<rect x="63.1" y="13" fill="#2C6F5A" width="3" height="1"/>
<circle fill="#44926A" cx="64.2" cy="10.4" r="0.7"/>
<circle fill="#2C6F5A" cx="64.2" cy="10.4" r="0.5"/>
<polyline fill="#2C6F5A" points="62.7,14.5 63.1,14 63.1,13 62.5,13 61.7,14.2 61.7,14.5 "/>
<rect x="57.7" y="24.5" fill="#2C6F5A" width="1" height="2.5"/>
<polygon fill="#2C6F5A" points="59.5,23.7 58.7,24.5 57.7,24.5 58.5,23.7 "/>
<rect x="52.5" y="23.2" fill="#9A916C" width="5.7" height="0.5"/>
<rect x="58.5" y="19" fill="#2C6F5A" width="1" height="4.7"/>
<rect x="57.7" y="18" fill="#2C6F5A" width="5" height="1"/>
<rect x="59.6" y="19" fill="#99906C" width="2.1" height="2.1"/>
<rect x="59.6" y="15.9" fill="#99906C" width="2.1" height="2.1"/>
<rect x="59.6" y="12" fill="#99906C" width="2.1" height="2.1"/>
<rect x="59.8" y="13.1" fill="#D2CFC2" width="1.6" height="4"/>
<rect x="59.8" y="13.1" fill="#ACB0AB" width="1.6" height="0.9"/>
<rect x="59.8" y="16.2" fill="#ACB0AB" width="1.6" height="0.9"/>
<polyline fill="#2C6F5A" points="59.5,12.3 59.9,11.8 59.9,10.8 59.3,10.8 58.5,11.9 58.5,12.3 "/>
<rect x="58.5" y="12.3" fill="#2C6F5A" width="1" height="5.7"/>
<g id="topPins">
	<g>
		<path fill="#9A916C" d="M3.6,0v2.5h2.6V0c0,0.7-0.6,1.3-1.3,1.3S3.6,0.7,3.6,0z"/>
		<path id="connector15pin" fill="#FFFFFF" d="M6.2,0H3.6c0,0.7,0.6,1.3,1.3,1.3S6.2,0.7,6.2,0z"/>
	</g>
	<g>
		<path fill="#9A916C" d="M7.2,0v2.5h2.6V0c0,0.7-0.6,1.3-1.3,1.3S7.2,0.7,7.2,0z"/>
		<path id="connector14pin" fill="#FFFFFF" d="M9.8,0H7.2c0,0.7,0.6,1.3,1.3,1.3S9.8,0.7,9.8,0z"/>
	</g>
	<g>
		<path fill="#9A916C" d="M10.8,0v2.5h2.6V0c0,0.7-0.6,1.3-1.3,1.3S10.8,0.7,10.8,0z"/>
		<path id="connector13pin" fill="#FFFFFF" d="M13.4,0h-2.6c0,0.7,0.6,1.3,1.3,1.3S13.4,0.7,13.4,0z"/>
	</g>
	<g>
		<path fill="#9A916C" d="M14.4,0v2.5H17V0c0,0.7-0.6,1.3-1.3,1.3S14.4,0.7,14.4,0z"/>
		<path id="connector12pin" fill="#FFFFFF" d="M17,0h-2.6c0,0.7,0.6,1.3,1.3,1.3S17,0.7,17,0z"/>
	</g>
	<g>
		<path fill="#9A916C" d="M18,0v2.5h2.6V0c0,0.7-0.6,1.3-1.3,1.3C18.6,1.3,18,0.7,18,0z"/>
		<path id="connector11pin" fill="#FFFFFF" d="M20.6,0H18c0,0.7,0.6,1.3,1.3,1.3C20,1.3,20.6,0.7,20.6,0z"/>
	</g>
	<g>
		<path fill="#9A916C" d="M21.6,0v2.5h2.6V0c0,0.7-0.6,1.3-1.3,1.3C22.2,1.3,21.6,0.7,21.6,0z"/>
		<path id="connector10pin" fill="#FFFFFF" d="M24.2,0h-2.6c0,0.7,0.6,1.3,1.3,1.3C23.6,1.3,24.2,0.7,24.2,0z"/>
	</g>
	<g>
		<path fill="#9A916C" d="M25.2,0v2.5h2.6V0c0,0.7-0.6,1.3-1.3,1.3C25.8,1.3,25.2,0.7,25.2,0z"/>
		<path id="connector9pin" fill="#FFFFFF" d="M27.8,0h-2.6c0,0.7,0.6,1.3,1.3,1.3C27.2,1.3,27.8,0.7,27.8,0z"/>
	</g>
	<g>
		<path fill="#9A916C" d="M28.8,0v2.5h2.6V0c0,0.7-0.6,1.3-1.3,1.3C29.4,1.3,28.8,0.7,28.8,0z"/>
		<path id="connector8pin" fill="#FFFFFF" d="M31.4,0h-2.6c0,0.7,0.6,1.3,1.3,1.3C30.8,1.3,31.4,0.7,31.4,0z"/>
	</g>
	<g>
		<path fill="#9A916C" d="M32.4,0v2.5H35V0c0,0.7-0.6,1.3-1.3,1.3S32.4,0.7,32.4,0z"/>
		<path id="connector7pin" fill="#FFFFFF" d="M35,0h-2.6c0,0.7,0.6,1.3,1.3,1.3S35,0.7,35,0z"/>
	</g>
	<g>
		<path fill="#9A916C" d="M36,0v2.5h2.6V0c0,0.7-0.6,1.3-1.3,1.3S36,0.7,36,0z"/>
		<path id="connector6pin" fill="#FFFFFF" d="M38.6,0H36c0,0.7,0.6,1.3,1.3,1.3S38.6,0.7,38.6,0z"/>
	</g>
	<g>
		<path fill="#9A916C" d="M39.6,0v2.5h2.6V0c0,0.7-0.6,1.3-1.3,1.3S39.6,0.7,39.6,0z"/>
		<path id="connector5pin" fill="#FFFFFF" d="M42.2,0h-2.6c0,0.7,0.6,1.3,1.3,1.3S42.2,0.7,42.2,0z"/>
	</g>
	<g>
		<path fill="#9A916C" d="M43.2,0v2.5h2.6V0c0,0.7-0.6,1.3-1.3,1.3S43.2,0.7,43.2,0z"/>
		<path id="connector4pin" fill="#FFFFFF" d="M45.8,0h-2.6c0,0.7,0.6,1.3,1.3,1.3S45.8,0.7,45.8,0z"/>
	</g>
	<g>
		<path fill="#9A916C" d="M46.8,0v2.5h2.6V0c0,0.7-0.6,1.3-1.3,1.3S46.8,0.7,46.8,0z"/>
		<path id="connector3pin" fill="#FFFFFF" d="M49.4,0h-2.6c0,0.7,0.6,1.3,1.3,1.3S49.4,0.7,49.4,0z"/>
	</g>
	<g>
		<path fill="#9A916C" d="M50.4,0v2.5H53V0c0,0.7-0.6,1.3-1.3,1.3S50.4,0.7,50.4,0z"/>
		<path id="connector2pin" fill="#FFFFFF" d="M53,0h-2.6c0,0.7,0.6,1.3,1.3,1.3S53,0.7,53,0z"/>
	</g>
	<g>
		<path fill="#9A916C" d="M57.6,0v2.5h2.6V0c0,0.7-0.6,1.3-1.3,1.3S57.6,0.7,57.6,0z"/>
		<path id="connector1pin" fill="#FFFFFF" d="M60.2,0h-2.6c0,0.7,0.6,1.3,1.3,1.3S60.2,0.7,60.2,0z"/>
	</g>
	<g>
		<path fill="#9A916C" d="M61.2,0v2.5h2.6V0c0,0.7-0.6,1.3-1.3,1.3S61.2,0.7,61.2,0z"/>
		<path id="connector0pin" fill="#FFFFFF" d="M63.8,0h-2.6c0,0.7,0.6,1.3,1.3,1.3S63.8,0.7,63.8,0z"/>
	</g>
</g>
<g id="leftPins">
	<g>
		<path fill="#9A916C" d="M1.3,5c0,0.7-0.6,1.3-1.3,1.3h2.5V3.7H0C0.7,3.7,1.3,4.3,1.3,5z"/>
		<path id="connector16pin" fill="#FFFFFF" d="M1.3,5c0-0.7-0.6-1.3-1.3-1.3v2.6C0.7,6.3,1.3,5.7,1.3,5z"/>
	</g>
	<g>
		<path fill="#9A916C" d="M1.3,8.6c0,0.7-0.6,1.3-1.3,1.3h2.5V7.3H0C0.7,7.3,1.3,7.9,1.3,8.6z"/>
		<path id="connector17pin" fill="#FFFFFF" d="M1.3,8.6c0-0.7-0.6-1.3-1.3-1.3v2.6C0.7,9.9,1.3,9.3,1.3,8.6z"/>
	</g>
	<g>
		<path fill="#9A916C" d="M1.3,12.2c0,0.7-0.6,1.3-1.3,1.3h2.5v-2.6H0C0.7,10.9,1.3,11.5,1.3,12.2z"/>
		<path id="connector18pin" fill="#FFFFFF" d="M1.3,12.2c0-0.7-0.6-1.3-1.3-1.3v2.6C0.7,13.5,1.3,12.9,1.3,12.2z"/>
	</g>
	<g>
		<path fill="#9A916C" d="M1.3,15.8c0,0.7-0.6,1.3-1.3,1.3h2.5v-2.6H0C0.7,14.5,1.3,15.1,1.3,15.8z"/>
		<path id="connector19pin" fill="#FFFFFF" d="M1.3,15.8c0-0.7-0.6-1.3-1.3-1.3v2.6C0.7,17.1,1.3,16.5,1.3,15.8z"/>
	</g>
	<g>
		<path fill="#9A916C" d="M1.3,19.4c0,0.7-0.6,1.3-1.3,1.3h2.5v-2.6H0C0.7,18.1,1.3,18.7,1.3,19.4z"/>
		<path id="connector20pin" fill="#FFFFFF" d="M1.3,19.4c0-0.7-0.6-1.3-1.3-1.3v2.6C0.7,20.7,1.3,20.1,1.3,19.4z"/>
	</g>
	<g>
		<path fill="#9A916C" d="M1.3,23c0,0.7-0.6,1.3-1.3,1.3h2.5v-2.6H0C0.7,21.7,1.3,22.3,1.3,23z"/>
		<path id="connector21pin" fill="#FFFFFF" d="M1.3,23c0-0.7-0.6-1.3-1.3-1.3v2.6C0.7,24.3,1.3,23.7,1.3,23z"/>
	</g>
	<g>
		<path fill="#9A916C" d="M1.3,26.6c0,0.7-0.6,1.3-1.3,1.3h2.5v-2.6H0C0.7,25.3,1.3,25.9,1.3,26.6z"/>
		<path id="connector22pin" fill="#FFFFFF" d="M1.3,26.6c0-0.7-0.6-1.3-1.3-1.3v2.6C0.7,27.9,1.3,27.3,1.3,26.6z"/>
	</g>
	<g>
		<path fill="#9A916C" d="M1.3,30.2c0,0.7-0.6,1.3-1.3,1.3h2.5v-2.6H0C0.7,28.9,1.3,29.5,1.3,30.2z"/>
		<path id="connector23pin" fill="#FFFFFF" d="M1.3,30.2c0-0.7-0.6-1.3-1.3-1.3v2.6C0.7,31.5,1.3,30.9,1.3,30.2z"/>
	</g>
	<g>
		<path fill="#9A916C" d="M1.3,33.8c0,0.7-0.6,1.3-1.3,1.3h2.5v-2.6H0C0.7,32.5,1.3,33.1,1.3,33.8z"/>
		<path id="connector24pin" fill="#FFFFFF" d="M1.3,33.8c0-0.7-0.6-1.3-1.3-1.3v2.6C0.7,35.1,1.3,34.5,1.3,33.8z"/>
	</g>
	<g>
		<path fill="#9A916C" d="M1.3,37.4c0,0.7-0.6,1.3-1.3,1.3h2.5v-2.6H0C0.7,36.1,1.3,36.7,1.3,37.4z"/>
		<path id="connector25pin" fill="#FFFFFF" d="M1.3,37.4c0-0.7-0.6-1.3-1.3-1.3v2.6C0.7,38.7,1.3,38.1,1.3,37.4z"/>
	</g>
	<g>
		<path fill="#9A916C" d="M1.3,41c0,0.7-0.6,1.3-1.3,1.3h2.5v-2.6H0C0.7,39.7,1.3,40.3,1.3,41z"/>
		<path id="connector26pin" fill="#FFFFFF" d="M1.3,41c0-0.7-0.6-1.3-1.3-1.3v2.6C0.7,42.3,1.3,41.7,1.3,41z"/>
	</g>
	<g>
		<path fill="#9A916C" d="M1.3,44.6c0,0.7-0.6,1.3-1.3,1.3h2.5v-2.6H0C0.7,43.3,1.3,43.9,1.3,44.6z"/>
		<path id="connector27pin" fill="#FFFFFF" d="M1.3,44.6c0-0.7-0.6-1.3-1.3-1.3v2.6C0.7,45.9,1.3,45.3,1.3,44.6z"/>
	</g>
</g>
<g id="bottomPins">
	<g>
		<path fill="#9A916C" d="M4.9,48.3c0.7,0,1.3,0.6,1.3,1.3v-2.5H3.6v2.5C3.6,48.9,4.2,48.3,4.9,48.3z"/>
		<path id="connector28pin" fill="#FFFFFF" d="M4.9,48.3c-0.7,0-1.3,0.6-1.3,1.3h2.6C6.2,48.9,5.6,48.3,4.9,48.3z"/>
	</g>
	<g>
		<path fill="#9A916C" d="M8.5,48.3c0.7,0,1.3,0.6,1.3,1.3v-2.5H7.2v2.5C7.2,48.9,7.8,48.3,8.5,48.3z"/>
		<path id="connector29pin" fill="#FFFFFF" d="M8.5,48.3c-0.7,0-1.3,0.6-1.3,1.3h2.6C9.8,48.9,9.2,48.3,8.5,48.3z"/>
	</g>
	<g>
		<path fill="#9A916C" d="M12.1,48.3c0.7,0,1.3,0.6,1.3,1.3v-2.5h-2.6v2.5C10.8,48.9,11.4,48.3,12.1,48.3z"/>
		<path id="connector30pin" fill="#FFFFFF" d="M12.1,48.3c-0.7,0-1.3,0.6-1.3,1.3h2.6C13.4,48.9,12.8,48.3,12.1,48.3z"/>
	</g>
	<g>
		<path fill="#9A916C" d="M15.7,48.3c0.7,0,1.3,0.6,1.3,1.3v-2.5h-2.6v2.5C14.4,48.9,15,48.3,15.7,48.3z"/>
		<path id="connector31pin" fill="#FFFFFF" d="M15.7,48.3c-0.7,0-1.3,0.6-1.3,1.3H17C17,48.9,16.4,48.3,15.7,48.3z"/>
	</g>
	<g>
		<path fill="#9A916C" d="M19.3,48.3c0.7,0,1.3,0.6,1.3,1.3v-2.5H18v2.5C18,48.9,18.6,48.3,19.3,48.3z"/>
		<path id="connector32pin" fill="#FFFFFF" d="M19.3,48.3c-0.7,0-1.3,0.6-1.3,1.3h2.6C20.6,48.9,20,48.3,19.3,48.3z"/>
	</g>
	<g>
		<path fill="#9A916C" d="M22.9,48.3c0.7,0,1.3,0.6,1.3,1.3v-2.5h-2.6v2.5C21.6,48.9,22.2,48.3,22.9,48.3z"/>
		<path id="connector33pin" fill="#FFFFFF" d="M22.9,48.3c-0.7,0-1.3,0.6-1.3,1.3h2.6C24.2,48.9,23.6,48.3,22.9,48.3z"/>
	</g>
	<g>
		<path fill="#9A916C" d="M26.5,48.3c0.7,0,1.3,0.6,1.3,1.3v-2.5h-2.6v2.5C25.2,48.9,25.8,48.3,26.5,48.3z"/>
		<path id="connector34pin" fill="#FFFFFF" d="M26.5,48.3c-0.7,0-1.3,0.6-1.3,1.3h2.6C27.8,48.9,27.2,48.3,26.5,48.3z"/>
	</g>
	<g>
		<path fill="#9A916C" d="M30.1,48.3c0.7,0,1.3,0.6,1.3,1.3v-2.5h-2.6v2.5C28.8,48.9,29.4,48.3,30.1,48.3z"/>
		<path id="connector35pin" fill="#FFFFFF" d="M30.1,48.3c-0.7,0-1.3,0.6-1.3,1.3h2.6C31.4,48.9,30.8,48.3,30.1,48.3z"/>
	</g>
	<g>
		<path fill="#9A916C" d="M33.7,48.3c0.7,0,1.3,0.6,1.3,1.3v-2.5h-2.6v2.5C32.4,48.9,33,48.3,33.7,48.3z"/>
		<path id="connector36pin" fill="#FFFFFF" d="M33.7,48.3c-0.7,0-1.3,0.6-1.3,1.3H35C35,48.9,34.4,48.3,33.7,48.3z"/>
	</g>
	<g>
		<path fill="#9A916C" d="M37.3,48.3c0.7,0,1.3,0.6,1.3,1.3v-2.5H36v2.5C36,48.9,36.6,48.3,37.3,48.3z"/>
		<path id="connector37pin" fill="#FFFFFF" d="M37.3,48.3c-0.7,0-1.3,0.6-1.3,1.3h2.6C38.6,48.9,38,48.3,37.3,48.3z"/>
	</g>
	<g>
		<path fill="#9A916C" d="M40.9,48.3c0.7,0,1.3,0.6,1.3,1.3v-2.5h-2.6v2.5C39.6,48.9,40.2,48.3,40.9,48.3z"/>
		<path id="connector38pin" fill="#FFFFFF" d="M40.9,48.3c-0.7,0-1.3,0.6-1.3,1.3h2.6C42.2,48.9,41.6,48.3,40.9,48.3z"/>
	</g>
	<g>
		<path fill="#9A916C" d="M44.5,48.3c0.7,0,1.3,0.6,1.3,1.3v-2.5h-2.6v2.5C43.2,48.9,43.8,48.3,44.5,48.3z"/>
		<path id="connector39pin" fill="#FFFFFF" d="M44.5,48.3c-0.7,0-1.3,0.6-1.3,1.3h2.6C45.8,48.9,45.2,48.3,44.5,48.3z"/>
	</g>
	<g>
		<path fill="#9A916C" d="M48.1,48.3c0.7,0,1.3,0.6,1.3,1.3v-2.5h-2.6v2.5C46.8,48.9,47.4,48.3,48.1,48.3z"/>
		<path id="connector40pin" fill="#FFFFFF" d="M48.1,48.3c-0.7,0-1.3,0.6-1.3,1.3h2.6C49.4,48.9,48.8,48.3,48.1,48.3z"/>
	</g>
	<g>
		<path fill="#9A916C" d="M51.7,48.3c0.7,0,1.3,0.6,1.3,1.3v-2.5h-2.6v2.5C50.4,48.9,51,48.3,51.7,48.3z"/>
		<path id="connector41pin" fill="#FFFFFF" d="M51.7,48.3c-0.7,0-1.3,0.6-1.3,1.3H53C53,48.9,52.4,48.3,51.7,48.3z"/>
	</g>
	<g>
		<path fill="#9A916C" d="M58.9,48.3c0.7,0,1.3,0.6,1.3,1.3v-2.5h-2.6v2.5C57.6,48.9,58.2,48.3,58.9,48.3z"/>
		<path id="connector42pin" fill="#FFFFFF" d="M58.9,48.3c-0.7,0-1.3,0.6-1.3,1.3h2.6C60.2,48.9,59.6,48.3,58.9,48.3z"/>
	</g>
	<g>
		<path fill="#9A916C" d="M62.5,48.3c0.7,0,1.3,0.6,1.3,1.3v-2.5h-2.6v2.5C61.2,48.9,61.8,48.3,62.5,48.3z"/>
		<path id="connector43pin" fill="#FFFFFF" d="M62.5,48.3c-0.7,0-1.3,0.6-1.3,1.3h2.6C63.8,48.9,63.2,48.3,62.5,48.3z"/>
	</g>
</g>
</svg>
