<?xml version="1.0" encoding="utf-8"?>
<!-- Generator: Adobe Illustrator 22.0.1, SVG Export Plug-In . SVG Version: 6.00 Build 0)  -->
<svg version="1.2" baseProfile="tiny" id="pcb" xmlns="http://www.w3.org/2000/svg" xmlns:xlink="http://www.w3.org/1999/xlink"
	 x="0px" y="0px" width="1.1680555in" height="0.7583333in" viewBox="0 0 84.1 54.6" xml:space="preserve">
<g id="silkscreen">
	<text transform="matrix(1 0 0 1 19.5065 29.2216)" font-family="'OCRA'" font-size="5.6693px">E73-2G4M04S</text>
	<rect x="2.5" y="2.5" fill="none" stroke="#000000" stroke-width="0.36" stroke-miterlimit="10" width="81.4" height="49.6"/>
</g>
<g id="copper1">
	<g id="leftPads">
		<rect id="connector16pin" stroke-width="0" y="6.2" fill="#F7BD10" width="5" height="2.6"/>
		<rect id="connector17pin" stroke-width="0" y="9.8" fill="#F7BD10" width="5" height="2.6"/>
		<rect id="connector18pin" stroke-width="0" y="13.4" fill="#F7BD10" width="5" height="2.6"/>
		<rect id="connector19pin" stroke-width="0" y="17" fill="#F7BD10" width="5" height="2.6"/>
		<rect id="connector20pin" stroke-width="0" y="20.6" fill="#F7BD10" width="5" height="2.6"/>
		<rect id="connector21pin" stroke-width="0" y="24.2" fill="#F7BD10" width="5" height="2.6"/>
		<rect id="connector22pin" stroke-width="0" y="27.8" fill="#F7BD10" width="5" height="2.6"/>
		<rect id="connector23pin" stroke-width="0" y="31.4" fill="#F7BD10" width="5" height="2.6"/>
		<rect id="connector24pin" stroke-width="0" y="35" fill="#F7BD10" width="5" height="2.6"/>
		<rect id="connector25pin" stroke-width="0" y="38.6" fill="#F7BD10" width="5" height="2.6"/>
		<rect id="connector26pin" stroke-width="0" y="42.2" fill="#F7BD10" width="5" height="2.6"/>
		<rect id="connector27pin" stroke-width="0" y="45.8" fill="#F7BD10" width="5" height="2.6"/>
	</g>
	<g id="bottomPads">
		<rect id="connector28pin" stroke-width="0" x="6.1" y="49.6" fill="#F7BD10" width="2.6" height="5"/>
		<rect id="connector29pin" stroke-width="0" x="9.7" y="49.6" fill="#F7BD10" width="2.6" height="5"/>
		<rect id="connector30pin" stroke-width="0" x="13.3" y="49.6" fill="#F7BD10" width="2.6" height="5"/>
		<rect id="connector31pin" stroke-width="0" x="16.9" y="49.6" fill="#F7BD10" width="2.6" height="5"/>
		<rect id="connector32pin" stroke-width="0" x="20.5" y="49.6" fill="#F7BD10" width="2.6" height="5"/>
		<rect id="connector33pin" stroke-width="0" x="24.1" y="49.6" fill="#F7BD10" width="2.6" height="5"/>
		<rect id="connector34pin" stroke-width="0" x="27.7" y="49.6" fill="#F7BD10" width="2.6" height="5"/>
		<rect id="connector35pin" stroke-width="0" x="31.3" y="49.6" fill="#F7BD10" width="2.6" height="5"/>
		<rect id="connector36pin" stroke-width="0" x="34.9" y="49.6" fill="#F7BD10" width="2.6" height="5"/>
		<rect id="connector37pin" stroke-width="0" x="38.5" y="49.6" fill="#F7BD10" width="2.6" height="5"/>
		<rect id="connector38pin" stroke-width="0" x="42.1" y="49.6" fill="#F7BD10" width="2.6" height="5"/>
		<rect id="connector39pin" stroke-width="0" x="45.7" y="49.6" fill="#F7BD10" width="2.6" height="5"/>
		<rect id="connector40pin" stroke-width="0" x="49.3" y="49.6" fill="#F7BD10" width="2.6" height="5"/>
		<rect id="connector41pin" stroke-width="0" x="52.9" y="49.6" fill="#F7BD10" width="2.6" height="5"/>
		<rect id="connector42pin" stroke-width="0" x="60.1" y="49.6" fill="#F7BD10" width="2.6" height="5"/>
		<rect id="connector43pin" stroke-width="0" x="63.7" y="49.6" fill="#F7BD10" width="2.6" height="5"/>
	</g>
	<g id="topPads">
		<rect id="connector15pin" stroke-width="0" x="6.1" y="0" fill="#F7BD10" width="2.6" height="5"/>
		<rect id="connector14pin" stroke-width="0" x="9.7" y="0" fill="#F7BD10" width="2.6" height="5"/>
		<rect id="connector13pin" stroke-width="0" x="13.3" y="0" fill="#F7BD10" width="2.6" height="5"/>
		<rect id="connector12pin" stroke-width="0" x="16.9" y="0" fill="#F7BD10" width="2.6" height="5"/>
		<rect id="connector11pin" stroke-width="0" x="20.5" y="0" fill="#F7BD10" width="2.6" height="5"/>
		<rect id="connector10pin" stroke-width="0" x="24.1" y="0" fill="#F7BD10" width="2.6" height="5"/>
		<rect id="connector9pin" stroke-width="0" x="27.7" y="0" fill="#F7BD10" width="2.6" height="5"/>
		<rect id="connector8pin" stroke-width="0" x="31.3" y="0" fill="#F7BD10" width="2.6" height="5"/>
		<rect id="connector7pin" stroke-width="0" x="34.9" y="0" fill="#F7BD10" width="2.6" height="5"/>
		<rect id="connector6pin" stroke-width="0" x="38.5" y="0" fill="#F7BD10" width="2.6" height="5"/>
		<rect id="connector5pin" stroke-width="0" x="42.1" y="0" fill="#F7BD10" width="2.6" height="5"/>
		<rect id="connector4pin" stroke-width="0" x="45.7" y="0" fill="#F7BD10" width="2.6" height="5"/>
		<rect id="connector3pin" stroke-width="0" x="49.3" y="0" fill="#F7BD10" width="2.6" height="5"/>
		<rect id="connector2pin" stroke-width="0" x="52.9" y="0" fill="#F7BD10" width="2.6" height="5"/>
		<rect id="connector1pin" stroke-width="0" x="60.1" y="0" fill="#F7BD10" width="2.6" height="5"/>
		<rect id="connector0pin" stroke-width="0" x="63.7" y="0" fill="#F7BD10" width="2.6" height="5"/>
	</g>
	<g id="copper0">
	</g>
</g>
</svg>
