<?xml version="1.0" encoding="utf-8"?>
<!-- Generator: Adobe Illustrator 22.0.1, SVG Export Plug-In . SVG Version: 6.00 Build 0)  -->
<svg version="1.1" id="breadboard" xmlns="http://www.w3.org/2000/svg" xmlns:xlink="http://www.w3.org/1999/xlink" x="0px" y="0px"
	 width="81.3px" height="49.6px" viewBox="0 0 81.3 49.6" style="enable-background:new 0 0 81.3 49.6;" xml:space="preserve">
<style type="text/css">
	.st0{fill:#2C6F5A;}
	.st1{fill:#44926A;}
	.st2{fill:#EFEFEF;}
	.st3{fill:none;}
	.st4{font-family:'DroidSans';}
	.st5{font-size:6.5197px;}
	.st6{font-size:2.8346px;}
	.st7{fill:#9A916C;}
	.st8{fill:#FFFFFF;}
	.st9{fill:#DFCB7F;}
	.st10{fill:#767676;}
	.st11{stroke:#9A916C;stroke-width:0.1134;stroke-miterlimit:10;}
	.st12{fill:#EDEDEE;}
	.st13{fill:#EDEDEE;stroke:#DFCA7F;stroke-width:0.5102;stroke-miterlimit:10;}
	.st14{fill:#DEC97D;}
	.st15{fill:#99906C;}
	.st16{fill:#D2CFC2;}
	.st17{fill:#ACB0AB;}
</style>
<rect y="0" class="st0" width="81.4" height="49.6"/>
<g>
	<path class="st1" d="M55.1,45.7C55.1,45.8,55,45.8,55.1,45.7l-2,0.1c-0.1,0-0.1-0.1-0.1-0.1V4.2c0-0.1,0.1-0.1,0.1-0.1H55
		c0.1,0,0.1,0.1,0.1,0.1V45.7L55.1,45.7z"/>
</g>
<g>
	<path class="st1" d="M65.9,46.3c0,0.1-0.1,0.1-0.2,0.1H55.2c-0.1,0-0.1-0.1-0.1-0.1v-43c0-0.1,0.1-0.1,0.1-0.1h10.6
		c0.1,0,0.2,0.1,0.2,0.1L65.9,46.3L65.9,46.3z"/>
</g>
<g>
	<polygon class="st1" points="58.2,23.2 58.2,3.8 3.4,3.8 3.4,46.1 52.5,46.1 52.5,23.2 	"/>
	<polygon class="st2" points="57.7,23.2 57.7,4.3 3.9,4.3 3.9,45.6 52.5,45.6 52.5,23.2 	"/>
</g>
<polygon class="st3" points="5.7,29.2 5.7,44.8 52.2,44.8 52.2,35.7 56.3,35.7 56.3,29.2 "/>
<text transform="matrix(1 0 0 1 5.675 34.1082)" class="st4 st5">E73-2G4M04S</text>
<text transform="matrix(1 0 0 1 5.675 38.9265)" class="st4 st6">nRF52832 Module</text>
<text transform="matrix(1 0 0 1 5.675 43.1785)" class="st4 st6">No.170420000001</text>
<path class="st7" d="M62.5,1.3c-0.7,0-1.3-0.6-1.3-1.3v2.6h2.6V0C63.8,0.7,63.3,1.3,62.5,1.3z"/>
<path class="st8" d="M62.5,1.3c0.7,0,1.3-0.6,1.3-1.3h-2.5C61.3,0.7,61.8,1.3,62.5,1.3z"/>
<path class="st7" d="M58.9,1.3c-0.7,0-1.3-0.6-1.3-1.3v2.6h2.6V0C60.2,0.7,59.7,1.3,58.9,1.3z"/>
<path class="st8" d="M58.9,1.3c0.7,0,1.3-0.6,1.3-1.3h-2.6C57.7,0.7,58.2,1.3,58.9,1.3z"/>
<path class="st7" d="M62.5,48.3c-0.7,0-1.3,0.6-1.3,1.3V47h2.6v2.6C63.8,48.9,63.3,48.3,62.5,48.3z"/>
<path class="st8" d="M62.5,48.3c0.7,0,1.3,0.6,1.3,1.3h-2.5C61.3,48.9,61.8,48.3,62.5,48.3z"/>
<path class="st7" d="M58.9,48.3c-0.7,0-1.3,0.6-1.3,1.3V47h2.6v2.6C60.2,48.9,59.7,48.3,58.9,48.3z"/>
<path class="st8" d="M58.9,48.3c0.7,0,1.3,0.6,1.3,1.3h-2.5C57.7,48.9,58.2,48.3,58.9,48.3z"/>
<path class="st9" d="M1.3,5c0-0.7-0.6-1.3-1.3-1.3l0,0C0.7,3.7,1.3,4.3,1.3,5S0.7,6.3,0,6.3l0,0C0.7,6.3,1.3,5.7,1.3,5z"/>
<g>
	<path class="st7" d="M1.3,5c0,0.7-0.6,1.3-1.3,1.3h2.5V3.7H0C0.7,3.7,1.3,4.3,1.3,5z"/>
	<path class="st8" d="M1.3,5c0-0.7-0.6-1.3-1.3-1.3v2.6C0.7,6.3,1.3,5.7,1.3,5z"/>
</g>
<g>
	<path class="st7" d="M1.3,8.6c0,0.7-0.6,1.3-1.3,1.3h2.5V7.3H0C0.7,7.3,1.3,7.9,1.3,8.6z"/>
	<path class="st8" d="M1.3,8.6c0-0.7-0.6-1.3-1.3-1.3v2.6C0.7,9.9,1.3,9.3,1.3,8.6z"/>
</g>
<g>
	<path class="st7" d="M1.3,12.2c0,0.7-0.6,1.3-1.3,1.3h2.5v-2.6H0C0.7,10.9,1.3,11.5,1.3,12.2z"/>
	<path class="st8" d="M1.3,12.2c0-0.7-0.6-1.3-1.3-1.3v2.6C0.7,13.5,1.3,12.9,1.3,12.2z"/>
</g>
<path class="st9" d="M1.3,15.8c0-0.7-0.6-1.3-1.3-1.3l0,0C0.7,14.5,1.3,15.1,1.3,15.8S0.7,17.1,0,17.1l0,0
	C0.7,17.1,1.3,16.5,1.3,15.8z"/>
<g>
	<path class="st7" d="M1.3,15.8c0,0.7-0.6,1.3-1.3,1.3h2.5v-2.6H0C0.7,14.5,1.3,15.1,1.3,15.8z"/>
	<path class="st8" d="M1.3,15.8c0-0.7-0.6-1.3-1.3-1.3v2.6C0.7,17.1,1.3,16.5,1.3,15.8z"/>
</g>
<g>
	<path class="st7" d="M1.3,19.4c0,0.7-0.6,1.3-1.3,1.3h2.5v-2.6H0C0.7,18.1,1.3,18.7,1.3,19.4z"/>
	<path class="st8" d="M1.3,19.4c0-0.7-0.6-1.3-1.3-1.3v2.6C0.7,20.7,1.3,20.1,1.3,19.4z"/>
</g>
<g>
	<path class="st7" d="M1.3,23c0,0.7-0.6,1.3-1.3,1.3h2.5v-2.6H0C0.7,21.7,1.3,22.3,1.3,23z"/>
	<path class="st8" d="M1.3,23c0-0.7-0.6-1.3-1.3-1.3v2.6C0.7,24.3,1.3,23.7,1.3,23z"/>
</g>
<path class="st9" d="M1.3,26.6c0-0.7-0.6-1.3-1.3-1.3l0,0C0.7,25.3,1.3,25.9,1.3,26.6S0.7,27.9,0,27.9l0,0
	C0.7,27.9,1.3,27.3,1.3,26.6z"/>
<g>
	<path class="st7" d="M1.3,26.6c0,0.7-0.6,1.3-1.3,1.3h2.5v-2.6H0C0.7,25.3,1.3,25.9,1.3,26.6z"/>
	<path class="st8" d="M1.3,26.6c0-0.7-0.6-1.3-1.3-1.3v2.6C0.7,27.9,1.3,27.3,1.3,26.6z"/>
</g>
<g>
	<path class="st7" d="M1.3,30.2c0,0.7-0.6,1.3-1.3,1.3h2.5v-2.6H0C0.7,28.9,1.3,29.5,1.3,30.2z"/>
	<path class="st8" d="M1.3,30.2c0-0.7-0.6-1.3-1.3-1.3v2.6C0.7,31.5,1.3,30.9,1.3,30.2z"/>
</g>
<g>
	<path class="st7" d="M1.3,33.8c0,0.7-0.6,1.3-1.3,1.3h2.5v-2.6H0C0.7,32.5,1.3,33.1,1.3,33.8z"/>
	<path class="st8" d="M1.3,33.8c0-0.7-0.6-1.3-1.3-1.3v2.6C0.7,35.1,1.3,34.5,1.3,33.8z"/>
</g>
<path class="st9" d="M1.3,37.4c0-0.7-0.6-1.3-1.3-1.3l0,0C0.7,36.1,1.3,36.7,1.3,37.4S0.7,38.7,0,38.7l0,0
	C0.7,38.7,1.3,38.1,1.3,37.4z"/>
<g>
	<path class="st7" d="M1.3,37.4c0,0.7-0.6,1.3-1.3,1.3h2.5v-2.6H0C0.7,36.1,1.3,36.7,1.3,37.4z"/>
	<path class="st8" d="M1.3,37.4c0-0.7-0.6-1.3-1.3-1.3v2.6C0.7,38.7,1.3,38.1,1.3,37.4z"/>
</g>
<g>
	<path class="st7" d="M1.3,41c0,0.7-0.6,1.3-1.3,1.3h2.5v-2.6H0C0.7,39.7,1.3,40.3,1.3,41z"/>
	<path class="st8" d="M1.3,41c0-0.7-0.6-1.3-1.3-1.3v2.6C0.7,42.3,1.3,41.7,1.3,41z"/>
</g>
<g>
	<path class="st7" d="M1.3,44.6c0,0.7-0.6,1.3-1.3,1.3h2.5v-2.6H0C0.7,43.3,1.3,43.9,1.3,44.6z"/>
	<path class="st8" d="M1.3,44.6c0-0.7-0.6-1.3-1.3-1.3v2.6C0.7,45.9,1.3,45.3,1.3,44.6z"/>
</g>
<circle class="st10" cx="8.5" cy="8.8" r="1.8"/>
<circle class="st10" cx="47.4" cy="41.3" r="1.8"/>
<rect x="52.5" y="44.8" class="st7" width="0.5" height="1.3"/>
<rect x="52.5" y="30.7" class="st7" width="0.5" height="12.3"/>
<path class="st11" d="M53,44.6c0,0.1-0.1,0.2-0.3,0.2l0,0c-0.2,0-0.3-0.1-0.3-0.2v-1.3c0-0.1,0.1-0.2,0.3-0.2l0,0
	c0.2,0,0.3,0.1,0.3,0.2V44.6z"/>
<rect x="42.2" y="45.6" class="st7" width="10.3" height="0.5"/>
<rect x="27.1" y="45.6" class="st7" width="10.3" height="0.5"/>
<rect x="12.1" y="45.6" class="st7" width="10.3" height="0.5"/>
<rect x="3.4" y="45.6" class="st7" width="3.5" height="0.5"/>
<rect x="3.4" y="27.4" class="st7" width="0.5" height="11.2"/>
<rect x="3.4" y="14.5" class="st7" width="0.5" height="7.6"/>
<rect x="3.4" y="3.8" class="st7" width="0.5" height="4"/>
<rect x="42.2" y="3.8" class="st7" width="10.3" height="0.5"/>
<rect x="27.1" y="3.8" class="st7" width="10.3" height="0.5"/>
<rect x="12.1" y="3.8" class="st7" width="10.3" height="0.5"/>
<rect x="3.4" y="3.8" class="st7" width="3.5" height="0.5"/>
<circle class="st10" cx="52.5" cy="8.8" r="1.8"/>
<rect x="56.5" y="27" class="st12" width="7.4" height="7.4"/>
<circle class="st13" cx="60.2" cy="30.7" r="2.8"/>
<circle class="st14" cx="60.2" cy="30.7" r="0.7"/>
<rect x="59" y="26.4" class="st15" width="2.4" height="0.6"/>
<rect x="63.9" y="27.2" class="st15" width="0.6" height="6.9"/>
<rect x="55.9" y="27.2" class="st15" width="0.6" height="6.9"/>
<rect x="59" y="34.4" class="st15" width="2.4" height="0.6"/>
<path class="st0" d="M60.8,38.8c0,0.3-0.2,0.5-0.5,0.5s-0.5-0.2-0.5-0.5s0.2-0.5,0.5-0.5S60.8,38.5,60.8,38.8z"/>
<circle class="st0" cx="60.2" cy="41" r="0.5"/>
<circle class="st0" cx="60.2" cy="43.2" r="0.5"/>
<circle class="st0" cx="60.2" cy="45.4" r="0.5"/>
<circle class="st0" cx="60.2" cy="36.6" r="0.5"/>
<path class="st0" d="M64.7,38.8c0,0.3-0.2,0.5-0.5,0.5s-0.5-0.2-0.5-0.5s0.2-0.5,0.5-0.5C64.5,38.3,64.7,38.5,64.7,38.8z"/>
<circle class="st0" cx="64.2" cy="41" r="0.5"/>
<circle class="st0" cx="64.2" cy="43.2" r="0.5"/>
<circle class="st0" cx="64.2" cy="45.4" r="0.5"/>
<circle class="st0" cx="64.2" cy="36.6" r="0.5"/>
<path class="st0" d="M56.8,38.8c0,0.3-0.2,0.5-0.5,0.5s-0.5-0.2-0.5-0.5s0.2-0.5,0.5-0.5S56.8,38.5,56.8,38.8z"/>
<circle class="st0" cx="56.3" cy="41" r="0.5"/>
<circle class="st0" cx="56.3" cy="43.2" r="0.5"/>
<circle class="st0" cx="56.3" cy="45.4" r="0.5"/>
<circle class="st0" cx="56.3" cy="36.6" r="0.5"/>
<circle class="st0" cx="54.2" cy="25.1" r="0.5"/>
<circle class="st0" cx="56.6" cy="25.1" r="0.5"/>
<rect x="52.5" y="23.2" class="st7" width="0.5" height="2"/>
<rect x="57.7" y="20.1" class="st7" width="0.5" height="3.1"/>
<rect x="64.2" y="11.8" class="st7" width="15.1" height="1.2"/>
<rect x="71.8" y="17.1" class="st7" width="7.5" height="1.2"/>
<rect x="71.8" y="17.1" class="st7" width="1.2" height="7.5"/>
<rect x="71.8" y="23.4" class="st7" width="7.5" height="1.2"/>
<rect x="79.3" y="6.3" class="st7" width="1.2" height="12"/>
<rect x="71.8" y="29.2" class="st7" width="7.5" height="1.2"/>
<rect x="71.8" y="29.2" class="st7" width="1.2" height="7.5"/>
<rect x="71.8" y="35.5" class="st7" width="7.5" height="1.2"/>
<rect x="79.3" y="23.4" class="st7" width="1.2" height="7"/>
<rect x="79.3" y="35.5" class="st7" width="1.2" height="6.9"/>
<rect x="68.7" y="41.2" class="st7" width="11.7" height="1.2"/>
<rect x="67.6" y="40.5" class="st7" width="1.2" height="2.5"/>
<g>
	<path class="st0" d="M69.4,8.9c0,0.4-0.4,0.8-0.9,0.8h-5.2c-0.5,0-0.9-0.4-0.9-0.8V6c0-0.4,0.4-0.8,0.9-0.8h5.2
		c0.5,0,0.9,0.4,0.9,0.8V8.9z"/>
</g>
<rect x="63" y="6.3" class="st7" width="16.3" height="2.3"/>
<rect x="57.7" y="4.3" class="st7" width="0.5" height="5.5"/>
<rect x="55.8" y="3.8" class="st7" width="2.4" height="0.5"/>
<circle class="st0" cx="60.8" cy="4.3" r="0.5"/>
<circle class="st0" cx="64.2" cy="4.3" r="0.5"/>
<circle class="st0" cx="60.8" cy="7.4" r="0.5"/>
<circle class="st0" cx="64.2" cy="7.4" r="0.5"/>
<circle class="st0" cx="60.8" cy="10.4" r="0.5"/>
<path class="st0" d="M64.7,18.9c0,0.3-0.2,0.5-0.5,0.5c-0.3,0-0.5-0.2-0.5-0.5s0.2-0.5,0.5-0.5C64.5,18.4,64.7,18.6,64.7,18.9z"/>
<circle class="st0" cx="64.2" cy="21.9" r="0.5"/>
<circle class="st0" cx="64.2" cy="25" r="0.5"/>
<circle class="st0" cx="64.2" cy="15.9" r="0.5"/>
<rect x="61.7" y="14.4" class="st0" width="1" height="12.6"/>
<rect x="59.9" y="10.8" class="st0" width="6.2" height="1"/>
<rect x="63.1" y="13" class="st0" width="3" height="1"/>
<circle class="st1" cx="64.2" cy="10.4" r="0.7"/>
<circle class="st0" cx="64.2" cy="10.4" r="0.5"/>
<polyline class="st0" points="62.7,14.5 63.1,14 63.1,13 62.5,13 61.7,14.2 61.7,14.5 "/>
<rect x="57.7" y="24.5" class="st0" width="1" height="2.5"/>
<polygon class="st0" points="59.5,23.7 58.7,24.5 57.7,24.5 58.5,23.7 "/>
<rect x="52.5" y="23.2" class="st7" width="5.7" height="0.5"/>
<rect x="58.5" y="19" class="st0" width="1" height="4.7"/>
<rect x="57.7" y="18" class="st0" width="5" height="1"/>
<rect x="59.6" y="19" class="st15" width="2.1" height="2.1"/>
<rect x="59.6" y="15.9" class="st15" width="2.1" height="2.1"/>
<rect x="59.6" y="12" class="st15" width="2.1" height="2.1"/>
<rect x="59.8" y="13.1" class="st16" width="1.6" height="4"/>
<rect x="59.8" y="13.1" class="st17" width="1.6" height="0.9"/>
<rect x="59.8" y="16.2" class="st17" width="1.6" height="0.9"/>
<polyline class="st0" points="59.5,12.3 59.9,11.8 59.9,10.8 59.3,10.8 58.5,11.9 58.5,12.3 "/>
<rect x="58.5" y="12.3" class="st0" width="1" height="5.7"/>
<g>
	<path class="st7" d="M3.6,0v2.5h2.6V0c0,0.7-0.6,1.3-1.3,1.3S3.6,0.7,3.6,0z"/>
	<path class="st8" d="M6.2,0L3.6,0c0,0.7,0.6,1.3,1.3,1.3S6.2,0.7,6.2,0z"/>
</g>
<g>
	<path class="st7" d="M8.5,0v2.5h2.6V0c0,0.7-0.6,1.3-1.3,1.3S8.5,0.7,8.5,0z"/>
	<path class="st8" d="M11.1,0L8.5,0c0,0.7,0.6,1.3,1.3,1.3S11.1,0.7,11.1,0z"/>
</g>
</svg>
