<?xml version="1.0" encoding="utf-8"?>
<!-- Generator: Adobe Illustrator 22.0.1, SVG Export Plug-In . SVG Version: 6.00 Build 0)  -->
<svg version="1.2" baseProfile="tiny" id="pcb" xmlns="http://www.w3.org/2000/svg" xmlns:xlink="http://www.w3.org/1999/xlink"
	 x="0px" y="0px" width="1.1680555in" height="0.7583333in" viewBox="0 0 84.1 54.6" xml:space="preserve">
<g id="silkscreen">
	<text transform="matrix(1 0 0 1 19.5065 29.2216)" font-family="'OCRA'" font-size="5.6693px">E73-2G4M04S</text>
	<rect x="2.5" y="2.5" fill="none" stroke="#000000" stroke-width="0.36" stroke-miterlimit="10" width="81.4" height="49.6"/>
</g>
<g id="copper1">
	<g id="leftPads">
		<rect id="connector16pin" y="6.6" fill="#F7BD10" width="5.4" height="1.7"/>
		<rect id="connector17pin" y="10.2" fill="#F7BD10" width="5.4" height="1.7"/>
		<rect id="connector18pin" y="13.8" fill="#F7BD10" width="5.4" height="1.7"/>
		<rect id="connector19pin" y="17.4" fill="#F7BD10" width="5.4" height="1.7"/>
		<rect id="connector20pin" y="21" fill="#F7BD10" width="5.4" height="1.7"/>
		<rect id="connector21pin" y="24.6" fill="#F7BD10" width="5.4" height="1.7"/>
		<rect id="connector22pin" y="28.2" fill="#F7BD10" width="5.4" height="1.7"/>
		<rect id="connector23pin" y="31.8" fill="#F7BD10" width="5.4" height="1.7"/>
		<rect id="connector24pin" y="35.4" fill="#F7BD10" width="5.4" height="1.7"/>
		<rect id="connector25pin" y="39" fill="#F7BD10" width="5.4" height="1.7"/>
		<rect id="connector26pin" y="42.6" fill="#F7BD10" width="5.4" height="1.7"/>
		<rect id="connector27pin" y="46.2" fill="#F7BD10" width="5.4" height="1.7"/>
	</g>
	<g id="bottomPads">
		<rect id="connector28pin" x="6.5" y="49.2" fill="#F7BD10" width="1.7" height="5.4"/>
		<rect id="connector29pin" x="10.1" y="49.2" fill="#F7BD10" width="1.7" height="5.4"/>
		<rect id="connector30pin" x="13.7" y="49.2" fill="#F7BD10" width="1.7" height="5.4"/>
		<rect id="connector31pin" x="17.3" y="49.2" fill="#F7BD10" width="1.7" height="5.4"/>
		<rect id="connector32pin" x="20.9" y="49.2" fill="#F7BD10" width="1.7" height="5.4"/>
		<rect id="connector33pin" x="24.5" y="49.2" fill="#F7BD10" width="1.7" height="5.4"/>
		<rect id="connector34pin" x="28.1" y="49.2" fill="#F7BD10" width="1.7" height="5.4"/>
		<rect id="connector35pin" x="31.7" y="49.2" fill="#F7BD10" width="1.7" height="5.4"/>
		<rect id="connector36pin" x="35.3" y="49.2" fill="#F7BD10" width="1.7" height="5.4"/>
		<rect id="connector37pin" x="38.9" y="49.2" fill="#F7BD10" width="1.7" height="5.4"/>
		<rect id="connector38pin" x="42.5" y="49.2" fill="#F7BD10" width="1.7" height="5.4"/>
		<rect id="connector39pin" x="46.1" y="49.2" fill="#F7BD10" width="1.7" height="5.4"/>
		<rect id="connector40pin" x="49.7" y="49.2" fill="#F7BD10" width="1.7" height="5.4"/>
		<rect id="connector41pin" x="53.3" y="49.2" fill="#F7BD10" width="1.7" height="5.4"/>
		<rect id="connector42pin" x="60.5" y="49.2" fill="#F7BD10" width="1.7" height="5.4"/>
		<rect id="connector43pin" x="64.1" y="49.2" fill="#F7BD10" width="1.7" height="5.4"/>
	</g>
	<g id="topPads">
		<rect id="connector15pin" x="6.5" y="0" fill="#F7BD10" width="1.7" height="5.4"/>
		<rect id="connector14pin" x="10.1" y="0" fill="#F7BD10" width="1.7" height="5.4"/>
		<rect id="connector13pin" x="13.7" y="0" fill="#F7BD10" width="1.7" height="5.4"/>
		<rect id="connector12pin" x="17.3" y="0" fill="#F7BD10" width="1.7" height="5.4"/>
		<rect id="connector11pin" x="20.9" y="0" fill="#F7BD10" width="1.7" height="5.4"/>
		<rect id="connector10pin" x="24.5" y="0" fill="#F7BD10" width="1.7" height="5.4"/>
		<rect id="connector9pin" x="28.1" y="0" fill="#F7BD10" width="1.7" height="5.4"/>
		<rect id="connector8pin" x="31.7" y="0" fill="#F7BD10" width="1.7" height="5.4"/>
		<rect id="connector7pin" x="35.3" y="0" fill="#F7BD10" width="1.7" height="5.4"/>
		<rect id="connector6pin" x="38.9" y="0" fill="#F7BD10" width="1.7" height="5.4"/>
		<rect id="connector5pin" x="42.5" y="0" fill="#F7BD10" width="1.7" height="5.4"/>
		<rect id="connector4pin" x="46.1" y="0" fill="#F7BD10" width="1.7" height="5.4"/>
		<rect id="connector3pin" x="49.7" y="0" fill="#F7BD10" width="1.7" height="5.4"/>
		<rect id="connector2pin" x="53.3" y="0" fill="#F7BD10" width="1.7" height="5.4"/>
		<rect id="connector1pin" x="60.5" y="0" fill="#F7BD10" width="1.7" height="5.4"/>
		<rect id="connector0pin" x="64.1" y="0" fill="#F7BD13" width="1.7" height="5.4"/>
	</g>
	<g id="copper0">
	</g>
</g>
</svg>
