<?xml version="1.0" encoding="utf-8"?>
<!-- Generator: Adobe Illustrator 22.0.1, SVG Export Plug-In . SVG Version: 6.00 Build 0)  -->
<svg version="1.2" baseProfile="tiny" id="svg2" xmlns:svg="http://www.w3.org/2000/svg"
	 xmlns="http://www.w3.org/2000/svg" xmlns:xlink="http://www.w3.org/1999/xlink" x="0px" y="0px" width="0.2in" height="1in"
	 viewBox="0 0 14.4 72" xml:space="preserve">
<g id="schematic">
	
		<line id="connector0pin" fill="none" stroke="#000000" stroke-width="0.7" stroke-linecap="round" stroke-linejoin="round" x1="0.4" y1="3.6" x2="7.5" y2="3.6"/>
	<rect id="connector0terminal" x="-0.3" y="3.5" fill="none" width="0.5" height="0.2"/>
	<polyline fill="none" stroke="#000000" stroke-width="0.7" stroke-linecap="round" stroke-linejoin="round" points="9.9,1.6 
		14.1,3.6 9.9,5.6 	"/>
	
		<line id="line" fill="none" stroke="#000000" stroke-width="0.7" stroke-linecap="round" stroke-linejoin="round" x1="14.1" y1="3.6" x2="4.8" y2="3.6"/>
	<text transform="matrix(1 0 0 1 1.1342 2.58)" fill="#8C8C8C" font-family="'DroidSans'" font-size="2.5px">V</text>
	<text transform="matrix(1 0 0 1 2.5541 2.58)" fill="#8C8C8C" font-family="'DroidSans'" font-size="2.5px">T</text>
	<text transform="matrix(1 0 0 1 3.7514 2.58)" fill="#8C8C8C" font-family="'DroidSans'" font-size="2.5px">r</text>
	<text transform="matrix(1 0 0 1 4.7485 2.58)" fill="#8C8C8C" font-family="'DroidSans'" font-size="2.5px">e</text>
	<text transform="matrix(1 0 0 1 6.0864 2.58)" fill="#8C8C8C" font-family="'DroidSans'" font-size="2.5px">f</text>
	
		<line id="connector1pin" fill="none" stroke="#000000" stroke-width="0.7" stroke-linecap="round" stroke-linejoin="round" x1="0.4" y1="10.8" x2="7.5" y2="10.8"/>
	<rect id="connector1terminal" x="-0.3" y="10.7" fill="none" width="0.5" height="0.2"/>
	<polyline fill="none" stroke="#000000" stroke-width="0.7" stroke-linecap="round" stroke-linejoin="round" points="9.9,8.8 
		14.1,10.8 9.9,12.8 	"/>
	
		<line id="line_1_" fill="none" stroke="#000000" stroke-width="0.7" stroke-linecap="round" stroke-linejoin="round" x1="14.1" y1="10.8" x2="4.8" y2="10.8"/>
	<text transform="matrix(1 0 0 1 1.1337 9.78)" fill="#8C8C8C" font-family="'DroidSans'" font-size="2.5px">S</text>
	<text transform="matrix(1 0 0 1 2.4316 9.78)" fill="#8C8C8C" font-family="'DroidSans'" font-size="2.5px">W</text>
	<text transform="matrix(1 0 0 1 4.6406 9.78)" fill="#8C8C8C" font-family="'DroidSans'" font-size="2.5px">D</text>
	<text transform="matrix(1 0 0 1 6.3266 9.78)" fill="#8C8C8C" font-family="'DroidSans'" font-size="2.5px">I</text>
	<text transform="matrix(1 0 0 1 7.1494 9.78)" fill="#8C8C8C" font-family="'DroidSans'" font-size="2.5px">O</text>
	
		<line id="connector2pin" fill="none" stroke="#000000" stroke-width="0.7" stroke-linecap="round" stroke-linejoin="round" x1="0.4" y1="18" x2="7.5" y2="18"/>
	<rect id="connector2terminal" x="-0.3" y="17.9" fill="none" width="0.5" height="0.2"/>
	<polyline fill="none" stroke="#000000" stroke-width="0.7" stroke-linecap="round" stroke-linejoin="round" points="9.9,16 
		14.1,18 9.9,20 	"/>
	
		<line id="line_2_" fill="none" stroke="#000000" stroke-width="0.7" stroke-linecap="round" stroke-linejoin="round" x1="14.1" y1="18" x2="4.8" y2="18"/>
	<text transform="matrix(1 0 0 1 1.1337 16.98)" fill="#8C8C8C" font-family="'DroidSans'" font-size="2.5px">GND</text>
	
		<line id="connector3pin" fill="none" stroke="#000000" stroke-width="0.7" stroke-linecap="round" stroke-linejoin="round" x1="0.4" y1="25.2" x2="7.5" y2="25.2"/>
	<rect id="connector3terminal" x="-0.3" y="25.1" fill="none" width="0.5" height="0.2"/>
	<polyline fill="none" stroke="#000000" stroke-width="0.7" stroke-linecap="round" stroke-linejoin="round" points="9.9,23.2 
		14.1,25.2 9.9,27.2 	"/>
	
		<line id="line_3_" fill="none" stroke="#000000" stroke-width="0.7" stroke-linecap="round" stroke-linejoin="round" x1="14.1" y1="25.2" x2="4.8" y2="25.2"/>
	<text transform="matrix(1 0 0 1 1.1337 24.18)" fill="#8C8C8C" font-family="'DroidSans'" font-size="2.5px">S</text>
	<text transform="matrix(1 0 0 1 2.4316 24.18)" fill="#8C8C8C" font-family="'DroidSans'" font-size="2.5px">W</text>
	<text transform="matrix(1 0 0 1 4.6161 24.18)" fill="#8C8C8C" font-family="'DroidSans'" font-size="2.5px">C</text>
	<text transform="matrix(1 0 0 1 6.124 24.18)" fill="#8C8C8C" font-family="'DroidSans'" font-size="2.5px">L</text>
	<text transform="matrix(1 0 0 1 7.352 24.18)" fill="#8C8C8C" font-family="'DroidSans'" font-size="2.5px">K</text>
	
		<line id="connector4pin" fill="none" stroke="#000000" stroke-width="0.7" stroke-linecap="round" stroke-linejoin="round" x1="0.4" y1="32.4" x2="7.5" y2="32.4"/>
	<rect id="connector4terminal" x="-0.3" y="32.3" fill="none" width="0.5" height="0.2"/>
	<polyline fill="none" stroke="#000000" stroke-width="0.7" stroke-linecap="round" stroke-linejoin="round" points="9.9,30.4 
		14.1,32.4 9.9,34.4 	"/>
	
		<line id="line_4_" fill="none" stroke="#000000" stroke-width="0.7" stroke-linecap="round" stroke-linejoin="round" x1="14.1" y1="32.4" x2="4.8" y2="32.4"/>
	<text transform="matrix(1 0 0 1 1.1337 31.38)" fill="#8C8C8C" font-family="'DroidSans'" font-size="2.5px">GND</text>
	
		<line id="connector5pin" fill="none" stroke="#000000" stroke-width="0.7" stroke-linecap="round" stroke-linejoin="round" x1="0.4" y1="39.6" x2="7.5" y2="39.6"/>
	<rect id="connector5terminal" x="-0.3" y="39.5" fill="none" width="0.5" height="0.2"/>
	<polyline fill="none" stroke="#000000" stroke-width="0.7" stroke-linecap="round" stroke-linejoin="round" points="9.9,37.6 
		14.1,39.6 9.9,41.6 	"/>
	
		<line id="line_5_" fill="none" stroke="#000000" stroke-width="0.7" stroke-linecap="round" stroke-linejoin="round" x1="14.1" y1="39.6" x2="4.8" y2="39.6"/>
	<text transform="matrix(1 0 0 1 1.1337 38.58)" fill="#8C8C8C" font-family="'DroidSans'" font-size="2.5px">S</text>
	<text transform="matrix(1 0 0 1 2.4316 38.58)" fill="#8C8C8C" font-family="'DroidSans'" font-size="2.5px">W</text>
	<text transform="matrix(1 0 0 1 4.6161 38.58)" fill="#8C8C8C" font-family="'DroidSans'" font-size="2.5px">O</text>
	
		<line id="connector6pin" fill="none" stroke="#000000" stroke-width="0.7" stroke-linecap="round" stroke-linejoin="round" x1="0.4" y1="46.8" x2="7.5" y2="46.8"/>
	<rect id="connector6terminal" x="-0.3" y="46.7" fill="none" width="0.5" height="0.2"/>
	<polyline fill="none" stroke="#000000" stroke-width="0.7" stroke-linecap="round" stroke-linejoin="round" points="9.9,44.8 
		14.1,46.8 9.9,48.8 	"/>
	
		<line id="line_6_" fill="none" stroke="#000000" stroke-width="0.7" stroke-linecap="round" stroke-linejoin="round" x1="14.1" y1="46.8" x2="4.8" y2="46.8"/>
	<text transform="matrix(1 0 0 1 1.1337 45.78)" fill="#8C8C8C" font-family="'DroidSans'" font-size="2.5px">---</text>
	
		<line id="connector7pin" fill="none" stroke="#000000" stroke-width="0.7" stroke-linecap="round" stroke-linejoin="round" x1="0.4" y1="54" x2="7.5" y2="54"/>
	<rect id="connector7terminal" x="-0.3" y="53.9" fill="none" width="0.5" height="0.2"/>
	<polyline fill="none" stroke="#000000" stroke-width="0.7" stroke-linecap="round" stroke-linejoin="round" points="9.9,52 
		14.1,54 9.9,56 	"/>
	
		<line id="line_7_" fill="none" stroke="#000000" stroke-width="0.7" stroke-linecap="round" stroke-linejoin="round" x1="14.1" y1="54" x2="4.8" y2="54"/>
	<text transform="matrix(1 0 0 1 1.1337 52.98)" fill="#8C8C8C" font-family="'DroidSans'" font-size="2.5px">T</text>
	<text transform="matrix(1 0 0 1 2.4316 52.98)" fill="#8C8C8C" font-family="'DroidSans'" font-size="2.5px">D</text>
	<text transform="matrix(1 0 0 1 4.1171 52.98)" fill="#8C8C8C" font-family="'DroidSans'" font-size="2.5px">I</text>
	
		<line id="connector8pin" fill="none" stroke="#000000" stroke-width="0.7" stroke-linecap="round" stroke-linejoin="round" x1="0.4" y1="61.2" x2="7.5" y2="61.2"/>
	<rect id="connector8terminal" x="-0.3" y="61.1" fill="none" width="0.5" height="0.2"/>
	<polyline fill="none" stroke="#000000" stroke-width="0.7" stroke-linecap="round" stroke-linejoin="round" points="9.9,59.2 
		14.1,61.2 9.9,63.2 	"/>
	
		<line id="line_8_" fill="none" stroke="#000000" stroke-width="0.7" stroke-linecap="round" stroke-linejoin="round" x1="14.1" y1="61.2" x2="4.8" y2="61.2"/>
	<text transform="matrix(1 0 0 1 1.1337 60.18)" fill="#8C8C8C" font-family="'DroidSans'" font-size="2.5px">NC</text>
	
		<line id="connector9pin" fill="none" stroke="#000000" stroke-width="0.7" stroke-linecap="round" stroke-linejoin="round" x1="0.4" y1="68.4" x2="7.5" y2="68.4"/>
	<rect id="connector9terminal" x="-0.3" y="68.3" fill="none" width="0.5" height="0.2"/>
	<polyline fill="none" stroke="#000000" stroke-width="0.7" stroke-linecap="round" stroke-linejoin="round" points="9.9,66.4 
		14.1,68.4 9.9,70.4 	"/>
	
		<line id="line_9_" fill="none" stroke="#000000" stroke-width="0.7" stroke-linecap="round" stroke-linejoin="round" x1="14.1" y1="68.4" x2="4.8" y2="68.4"/>
	<text transform="matrix(1 0 0 1 1.1337 67.38)" fill="#8C8C8C" font-family="'DroidSans'" font-size="2.5px">!RST</text>
</g>
</svg>
